<svg width="717" height="512" viewBox="0 0 717 512" fill="none" xmlns="http://www.w3.org/2000/svg">
<path d="M369.095 506.326L703.059 308.558C713.691 302.568 722.804 292.754 712.445 286.315L377.293 92.7809C372.269 89.659 364.636 87.6103 359.514 90.5956L8.99859 294.451C-1.63372 300.636 -3.54208 317.865 7.05129 324.109L325.086 505.975C331.758 509.861 339.327 511.937 347.044 511.999C354.761 512.06 362.362 510.105 369.095 506.326Z" fill="#FFB3A6"/>
<path style="mix-blend-mode:multiply" d="M223.845 379.059L170.762 408.579C170.762 408.579 220.36 447.758 242.617 457.202L295.76 425.496" fill="url(#paint0_linear_1103_44489)"/>
<path style="mix-blend-mode:multiply" d="M221.684 261.031L168.6 290.552C168.6 290.552 181.316 310.707 203.652 320.073L261.019 288.367" fill="url(#paint1_linear_1103_44489)"/>
<path style="mix-blend-mode:multiply" d="M508.814 377.431C508.814 377.431 572.978 341.433 573.367 340.828L473.685 290.547L417.622 322.975L508.814 377.431Z" fill="url(#paint2_linear_1103_44489)"/>
<path d="M582.423 230.438L663.821 280.992C664.567 281.454 665.18 282.103 665.599 282.875C666.019 283.646 666.23 284.515 666.212 285.393C666.195 286.272 665.949 287.131 665.498 287.885C665.048 288.639 664.409 289.263 663.645 289.694L540.108 359.643C538.39 360.634 536.443 361.156 534.461 361.156C532.479 361.156 530.531 360.634 528.814 359.643L447.786 311.918C441.944 307.079 443.541 299.899 447.786 297.557L570.603 230.282C572.402 229.232 574.453 228.692 576.535 228.72C578.616 228.747 580.652 229.341 582.423 230.438Z" fill="#68E1FD"/>
<path d="M582.423 226.959L663.821 277.513C664.567 277.975 665.18 278.623 665.599 279.395C666.019 280.167 666.23 281.035 666.212 281.914C666.195 282.793 665.949 283.651 665.499 284.406C665.048 285.16 664.41 285.783 663.645 286.215L540.128 356.222C538.41 357.213 536.463 357.735 534.48 357.735C532.498 357.735 530.551 357.213 528.833 356.222L447.806 308.497C446.856 307.944 446.067 307.152 445.519 306.198C444.971 305.245 444.683 304.163 444.683 303.063C444.683 301.962 444.971 300.881 445.519 299.928C446.067 298.974 446.856 298.181 447.806 297.629L570.622 226.88C572.413 225.823 574.456 225.272 576.534 225.285C578.612 225.299 580.647 225.877 582.423 226.959Z" fill="white"/>
<path d="M577.01 229.691L658.816 281.28L536.467 351.423L452.051 301.689L577.01 229.691Z" fill="#606060"/>
<path d="M488.893 329.981C490.496 329.981 491.795 329.37 491.795 328.616C491.795 327.861 490.496 327.25 488.893 327.25C487.291 327.25 485.992 327.861 485.992 328.616C485.992 329.37 487.291 329.981 488.893 329.981Z" fill="#383097"/>
<path style="mix-blend-mode:multiply" d="M580.028 315.186C580.028 315.186 590.68 295.343 590.738 295.245L588.908 294.328L566.28 307.42L580.028 315.186Z" fill="url(#paint3_linear_1103_44489)"/>
<path d="M675.699 242.002C675.671 241.861 675.671 241.715 675.699 241.573C674.588 240.991 673.391 240.589 672.155 240.383L596.21 285.805C596.21 285.805 591.653 289.376 600.104 294.195L677.198 248.285C677.124 246.111 676.614 243.975 675.699 242.002Z" fill="#CCCCCC"/>
<path d="M596.054 285.785C596.054 285.785 587.213 295.697 587.057 296.341C586.901 296.985 599.851 294.175 599.851 294.175" fill="#CCCCCC"/>
<path d="M676.92 248.297C678.317 247.489 678.408 245.026 677.123 242.795C675.838 240.565 673.663 239.412 672.266 240.22C670.869 241.028 670.778 243.492 672.063 245.722C673.348 247.953 675.523 249.106 676.92 248.297Z" fill="#F2F2F2"/>
<path d="M291.903 222.434L323.8 237.828C324.999 238.409 326.017 239.305 326.747 240.421C327.476 241.537 327.889 242.83 327.941 244.163C327.993 245.496 327.682 246.818 327.042 247.988C326.402 249.158 325.456 250.131 324.307 250.803L248.693 294.997C247.058 295.951 245.119 296.236 243.279 295.793C241.44 295.349 239.842 294.211 238.82 292.616L220.457 264.032" fill="#56403D"/>
<path d="M118.34 148.408L372.775 1.54532C374.521 0.533475 376.501 0.000459944 378.517 2.97533e-07C380.534 -0.000459349 382.514 0.531655 384.26 1.54271C386.006 2.55376 387.454 4.00801 388.46 5.7589C389.466 7.50979 389.994 9.49542 389.99 11.5157V164.29C389.988 165.967 389.547 167.615 388.71 169.067C387.872 170.519 386.668 171.725 385.219 172.563L114.017 329.416C113.081 329.957 112.019 330.242 110.938 330.242C109.858 330.241 108.796 329.956 107.861 329.414C106.925 328.872 106.148 328.093 105.609 327.155C105.069 326.216 104.785 325.152 104.787 324.07V171.88C104.793 167.121 106.049 162.446 108.428 158.326C110.807 154.207 114.225 150.786 118.34 148.408Z" fill="#68E1FD"/>
<path d="M372.736 13.1032L126.051 155.322C123.416 156.842 121.228 159.031 119.706 161.669C118.185 164.307 117.384 167.299 117.386 170.346V284.878C117.389 285.973 117.678 287.049 118.225 287.997C118.772 288.945 119.558 289.732 120.504 290.281C121.45 290.83 122.523 291.121 123.615 291.125C124.708 291.128 125.783 290.845 126.733 290.302L378.325 145.645C379.265 145.105 380.047 144.327 380.59 143.388C381.134 142.45 381.421 141.384 381.421 140.298V18.1957C381.418 17.1776 381.149 16.1781 380.642 15.2958C380.135 14.4135 379.407 13.679 378.53 13.1648C377.653 12.6505 376.658 12.3744 375.641 12.3636C374.625 12.3528 373.624 12.6078 372.736 13.1032Z" fill="white"/>
<path d="M275.337 224.045C275.978 220.712 274.143 217.555 271.238 216.995C268.334 216.435 265.461 218.682 264.82 222.016C264.179 225.349 266.014 228.505 268.919 229.065C271.823 229.626 274.696 227.378 275.337 224.045Z" fill="#AB643C"/>
<path d="M385.277 288.482L451.837 326.588C452.532 326.99 453.11 327.569 453.511 328.266C453.913 328.963 454.124 329.753 454.124 330.558C454.124 331.363 453.913 332.154 453.511 332.851C453.11 333.548 452.532 334.126 451.837 334.529L266.959 441.1C264.717 442.395 262.176 443.076 259.588 443.076C257.001 443.076 254.459 442.395 252.218 441.1L189.904 405.063C189.18 404.643 188.58 404.039 188.162 403.313C187.744 402.587 187.524 401.764 187.524 400.926C187.524 400.088 187.744 399.265 188.162 398.539C188.58 397.813 189.18 397.21 189.904 396.79L376.962 288.521C378.222 287.78 379.654 287.386 381.115 287.379C382.575 287.372 384.011 287.753 385.277 288.482Z" fill="#974C26"/>
<path d="M284.699 349.238L303.705 360.516L289.606 368.73C285.712 366.408 274.222 359.657 270.542 357.492L284.699 349.238Z" fill="white"/>
<path d="M305.515 337.125L324.521 348.403L306.664 358.802C303.548 356.988 292.039 350.178 287.6 347.564L305.515 337.125Z" fill="white"/>
<path d="M381.149 293.121L400.446 304.223L383.271 314.213C380.545 312.633 368.9 305.745 364.207 302.974L381.149 293.121Z" fill="white"/>
<path d="M340.489 316.719L359.495 327.996L345.397 336.191C342.067 334.24 330.597 327.47 326.333 324.953L340.489 316.719Z" fill="white"/>
<path d="M361.305 304.656L380.311 315.934L362.376 326.333C360.273 325.124 348.317 318.061 343.312 315.095L361.305 304.656Z" fill="white"/>
<path d="M267.641 359.172L286.646 370.449L273.152 378.254C269.101 375.874 257.69 369.142 254.087 367.015L267.641 359.172Z" fill="white"/>
<path d="M323.43 326.703L342.436 337.981L327.5 346.663C323.995 344.712 312.564 337.864 308.436 335.425L323.43 326.703Z" fill="white"/>
<path d="M251.186 368.754L270.192 380.032L252.335 390.431C248.596 388.246 237.204 381.514 233.271 379.193L251.186 368.754Z" fill="white"/>
<path d="M230.349 380.867L249.354 392.145L217.321 410.778L198.004 399.676L230.349 380.867Z" fill="white"/>
<path d="M402.92 307.523L422.218 318.625L397.273 333.142C394.001 331.191 382.532 324.459 378.208 321.903L402.92 307.523Z" fill="white"/>
<path d="M354.47 335.699L373.476 346.977L359.378 355.191C355.6 352.986 344.208 346.255 340.313 343.953L354.47 335.699Z" fill="white"/>
<path d="M319.536 356.047L338.542 367.324L320.685 377.724C317.102 375.636 305.69 368.885 301.621 366.485L319.536 356.047Z" fill="white"/>
<path d="M337.412 345.637L356.418 356.914L341.482 365.597C337.588 363.314 326.157 356.563 322.418 354.358L337.412 345.637Z" fill="white"/>
<path d="M298.68 368.168L317.686 379.446L303.588 387.66C299.226 385.104 287.756 378.314 284.523 376.421L298.68 368.168Z" fill="white"/>
<path d="M281.623 378.094L300.628 389.371L287.133 397.176C282.694 394.581 271.205 387.771 268.069 385.937L281.623 378.094Z" fill="white"/>
<path d="M375.288 323.582L394.294 334.86L376.437 345.24C373.613 343.601 361.988 336.733 357.373 334.001L375.288 323.582Z" fill="white"/>
<path d="M265.167 387.676L284.172 398.953L266.316 409.353C262.187 406.934 250.737 400.183 247.251 398.114L265.167 387.676Z" fill="white"/>
<path d="M263.336 411.067L239.073 425.173L219.775 414.071L244.33 399.77L263.336 411.067Z" fill="white"/>
<path d="M277.552 409.137L291.689 417.546L275.293 427.048L260.941 418.795L277.552 409.137Z" fill="white"/>
<path d="M271.905 429.023L257.962 437.12L243.591 428.886L257.787 420.633L271.905 429.023Z" fill="white"/>
<path d="M426.715 322.332L441.515 330.546L424.729 340.302L410.202 331.932L426.715 322.332Z" fill="white"/>
<path d="M407.067 333.77L421.341 342.257L403.426 352.676L388.918 344.325L407.067 333.77Z" fill="white"/>
<path d="M385.765 346.16L400.019 354.648L295.098 415.562L280.708 407.29L385.765 346.16Z" fill="white"/>
<path style="mix-blend-mode:multiply" d="M432.597 166.477L405.335 182.613C405.335 182.613 413.747 197.402 434.545 206.143L466.208 189.09" fill="url(#paint4_linear_1103_44489)"/>
<path d="M454.699 190.421C468.626 190.421 479.917 182.454 479.917 172.626C479.917 162.799 468.626 154.832 454.699 154.832C440.772 154.832 429.481 162.799 429.481 172.626C429.481 182.454 440.772 190.421 454.699 190.421Z" fill="#68E1FD"/>
<path d="M454.718 169.848C465.15 169.848 473.607 166.38 473.607 162.102C473.607 157.823 465.15 154.355 454.718 154.355C444.286 154.355 435.829 157.823 435.829 162.102C435.829 166.38 444.286 169.848 454.718 169.848Z" fill="#974C26"/>
<path d="M455.964 162.282C457.444 160.194 458.943 158.009 460.501 155.55C462.449 152.409 464.396 149.209 466.09 145.892C467.683 142.96 469.044 139.907 470.16 136.761C471.401 133.344 472.397 129.842 473.139 126.283C473.334 125.346 473.49 124.332 473.665 123.473C473.665 123.044 473.665 123.083 473.665 123.142C473.665 123.2 473.665 122.849 473.665 122.322C473.84 120.371 473.957 118.42 473.977 116.586C474.063 109.95 472.784 103.368 470.218 97.25C463.4 107.158 458.803 118.427 456.743 130.283C456.613 130.985 456.49 131.694 456.373 132.41C456.373 132.41 456.178 133.697 456.1 134.224L455.906 136C455.815 136.897 455.73 137.801 455.653 138.712C455.38 142.204 455.244 145.697 455.263 149.189C455.419 153.56 455.614 157.931 455.964 162.282ZM463.987 110.069C464.441 109.549 464.915 109.041 465.409 108.547C465.309 108.997 465.309 109.463 465.409 109.913C464.936 109.888 464.462 109.94 464.006 110.069H463.987Z" fill="#999A1C"/>
<path d="M456.451 162.573C456.588 160.017 456.646 157.364 456.627 154.456C456.627 150.73 456.451 147.023 456.12 143.315C455.88 139.984 455.379 136.676 454.621 133.423C453.826 129.873 452.778 126.385 451.486 122.985C451.135 122.087 450.785 121.209 450.395 120.331C450.22 119.921 450.259 119.96 450.298 120.019L449.908 119.297C449.013 117.599 448.097 115.921 447.085 114.302C443.568 108.665 438.927 103.816 433.454 100.059C433.058 112.097 435.271 124.079 439.938 135.179C440.211 135.843 440.49 136.493 440.776 137.13L441.535 138.808L442.333 140.428C442.736 141.234 443.151 142.041 443.58 142.847C445.235 145.93 447.007 148.935 448.896 151.881C451.272 155.569 453.803 159.12 456.451 162.573ZM435.031 114.302C435.135 113.613 435.258 112.962 435.401 112.351C435.532 112.791 435.758 113.198 436.063 113.541C435.682 113.748 435.334 114.011 435.031 114.321V114.302Z" fill="#999A1C"/>
<path d="M456.567 163.938C455.808 162.514 454.99 161.07 454.055 159.489C452.848 157.538 451.563 155.587 450.161 153.636C448.94 151.919 447.585 150.301 446.11 148.797C444.535 147.137 442.843 145.591 441.047 144.173L439.684 143.061C439.451 142.905 439.489 142.905 439.528 142.924L439.081 142.651C438.048 142.027 437.016 141.422 435.945 140.876C432.241 138.968 428.184 137.845 424.028 137.578C427.691 144.195 432.74 149.939 438.827 154.416L439.918 155.216L440.853 155.88L441.807 156.485L443.267 157.382C445.15 158.514 447.097 159.568 449.109 160.543C451.504 161.811 454.016 162.923 456.567 163.938ZM429.461 144.817C429.292 144.414 429.136 144.004 428.993 143.588C429.205 143.784 429.458 143.931 429.733 144.017C429.602 144.268 429.51 144.538 429.461 144.817Z" fill="#999A1C"/>
<path d="M455.964 162.282C457.444 160.194 458.943 158.009 460.501 155.55C462.449 152.409 464.396 149.209 466.09 145.892C467.683 142.96 469.044 139.907 470.16 136.761C471.401 133.344 472.397 129.842 473.139 126.283C473.334 125.346 473.49 124.332 473.665 123.473C473.665 123.044 473.665 123.083 473.665 123.142C473.665 123.2 473.665 122.849 473.665 122.322C473.84 120.371 473.957 118.42 473.977 116.586C474.063 109.95 472.784 103.368 470.218 97.25C463.4 107.158 458.803 118.427 456.743 130.283C456.613 130.985 456.49 131.694 456.373 132.41C456.373 132.41 456.178 133.697 456.1 134.224L455.906 136C455.815 136.897 455.73 137.801 455.653 138.712C455.38 142.204 455.244 145.697 455.263 149.189C455.419 153.56 455.614 157.931 455.964 162.282ZM463.987 110.069C464.441 109.549 464.915 109.041 465.409 108.547C465.309 108.997 465.309 109.463 465.409 109.913C464.936 109.888 464.462 109.94 464.006 110.069H463.987Z" fill="#999A1C"/>
<path d="M456.451 162.573C456.588 160.017 456.646 157.364 456.627 154.456C456.627 150.73 456.451 147.023 456.12 143.315C455.88 139.984 455.379 136.676 454.621 133.423C453.826 129.873 452.778 126.385 451.486 122.985C451.135 122.087 450.785 121.209 450.395 120.331C450.22 119.921 450.259 119.96 450.298 120.019L449.908 119.297C449.013 117.599 448.097 115.921 447.085 114.302C443.568 108.665 438.927 103.816 433.454 100.059C433.058 112.097 435.271 124.079 439.938 135.179C440.211 135.843 440.49 136.493 440.776 137.13L441.535 138.808L442.333 140.428C442.736 141.234 443.151 142.041 443.58 142.847C445.235 145.93 447.007 148.935 448.896 151.881C451.272 155.569 453.803 159.12 456.451 162.573ZM435.031 114.302C435.135 113.613 435.258 112.962 435.401 112.351C435.532 112.791 435.758 113.198 436.063 113.541C435.682 113.748 435.334 114.011 435.031 114.321V114.302Z" fill="#999A1C"/>
<path d="M456.567 163.938C455.808 162.514 454.99 161.07 454.055 159.489C452.848 157.538 451.563 155.587 450.161 153.636C448.94 151.919 447.585 150.301 446.11 148.797C444.535 147.137 442.843 145.591 441.047 144.173L439.684 143.061C439.451 142.905 439.489 142.905 439.528 142.924L439.081 142.651C438.048 142.027 437.016 141.422 435.945 140.876C432.241 138.968 428.184 137.845 424.028 137.578C427.691 144.195 432.74 149.939 438.827 154.416L439.918 155.216L440.853 155.88L441.807 156.485L443.267 157.382C445.15 158.514 447.097 159.568 449.109 160.543C451.504 161.811 454.016 162.923 456.567 163.938ZM429.461 144.817C429.292 144.414 429.136 144.004 428.993 143.588C429.205 143.784 429.458 143.931 429.733 144.017C429.602 144.268 429.51 144.538 429.461 144.817Z" fill="#999A1C"/>
<path d="M170.996 240.196L260.942 192.256L206.962 140.609L170.996 240.196Z" fill="#E88831"/>
<path d="M331.026 126.911C349.932 126.911 365.259 111.554 365.259 92.6097C365.259 73.6657 349.932 58.3086 331.026 58.3086C312.119 58.3086 296.792 73.6657 296.792 92.6097C296.792 111.554 312.119 126.911 331.026 126.911Z" fill="#7ACC92"/>
<path d="M152.067 172.784C146.615 169.662 141.708 178.091 147.16 181.213C164.082 190.968 150.529 212.197 137.93 218.284C132.283 220.996 137.209 229.425 142.837 226.713C162.505 217.211 175.435 185.993 152.067 172.784Z" fill="#56403D"/>
<path d="M307.853 148.917C302.673 124.664 270.094 139.551 275.761 161.541C278.214 171.062 288.574 176.603 297.532 171.882C301.448 169.632 304.554 166.2 306.408 162.076C308.261 157.951 308.767 153.346 307.853 148.917ZM298.466 155.004C298.26 156.805 297.604 158.525 296.56 160.005C295.515 161.485 294.114 162.678 292.488 163.472C285.05 166.321 285.225 156.858 287.055 152.331C290.327 143.941 300.063 145.014 298.428 155.082L298.466 155.004Z" fill="#56403D"/>
<path d="M292.78 460.572C292.98 459.31 293.485 458.117 294.252 457.096C295.02 456.075 296.025 455.259 297.181 454.719L311.299 446.563L333.109 433.9L359.164 418.779L386.894 402.702L413.708 387.092L437.076 373.571L454.31 363.581L463.365 358.332C463.365 358.528 463.676 358.528 463.871 358.469C464.946 358.206 466.071 358.225 467.137 358.525C468.202 358.824 469.173 359.393 469.956 360.177C470.738 360.961 471.306 361.934 471.605 363.002C471.903 364.069 471.922 365.196 471.66 366.274C470.609 370.371 467.123 373.981 463.871 376.478C453.327 384.063 442.323 390.983 430.922 397.199V393.121C438.595 388.907 455.147 379.463 462.079 372.244L458.769 374.195L449.656 379.541L435.927 387.58L418.791 397.609L399.376 409.062L379.007 420.984L358.833 432.788L340.061 443.793L323.957 453.295L311.552 460.553C307.775 462.777 303.666 465.782 299.265 466.641C298.434 466.7 297.6 466.586 296.815 466.308C296.031 466.029 295.311 465.592 294.703 465.022C294.094 464.453 293.609 463.764 293.279 462.998C292.948 462.233 292.778 461.407 292.78 460.572Z" fill="#68E1FD"/>
<path style="mix-blend-mode:multiply" d="M403.153 252.52L374.06 269.885C374.06 269.885 393.163 288.225 415.421 297.61L442.469 279.914" fill="url(#paint5_linear_1103_44489)"/>
<path d="M400.369 240.13V253.768L442.411 279.855L492.885 248.949V237.32" fill="#E54C3C"/>
<path d="M492.885 237.322L450.025 211.625L400.369 240.131L443.229 266.218L492.885 237.322Z" fill="#F5604B"/>
<defs>
<linearGradient id="paint0_linear_1103_44489" x1="286.296" y1="373.751" x2="211.265" y2="434.697" gradientUnits="userSpaceOnUse">
<stop stop-color="#D4A397"/>
<stop offset="1" stop-color="white"/>
</linearGradient>
<linearGradient id="paint1_linear_1103_44489" x1="13965" y1="9191.08" x2="12050.9" y2="11629.8" gradientUnits="userSpaceOnUse">
<stop stop-color="#D4A397"/>
<stop offset="1" stop-color="white"/>
</linearGradient>
<linearGradient id="paint2_linear_1103_44489" x1="517.908" y1="298.82" x2="479.775" y2="354.884" gradientUnits="userSpaceOnUse">
<stop offset="0.01" stop-color="#4D4D4D"/>
<stop offset="1" stop-color="white"/>
</linearGradient>
<linearGradient id="paint3_linear_1103_44489" x1="8325.4" y1="3859.33" x2="8201.24" y2="4073.85" gradientUnits="userSpaceOnUse">
<stop offset="0.01" stop-color="#4D4D4D"/>
<stop offset="1" stop-color="white"/>
</linearGradient>
<linearGradient id="paint4_linear_1103_44489" x1="451.058" y1="169.169" x2="423.717" y2="199.066" gradientUnits="userSpaceOnUse">
<stop stop-color="#78B46A"/>
<stop offset="0.03" stop-color="#7F3500"/>
<stop offset="1" stop-color="white"/>
</linearGradient>
<linearGradient id="paint5_linear_1103_44489" x1="16812.1" y1="7040.06" x2="15873.9" y2="8198.91" gradientUnits="userSpaceOnUse">
<stop stop-color="#D4A397"/>
<stop offset="1" stop-color="white"/>
</linearGradient>
</defs>
</svg>
