<svg width="56" height="56" viewBox="0 0 56 56" fill="none" xmlns="http://www.w3.org/2000/svg">
<path d="M0 28.0005C0 12.5365 12.5366 0 28.0006 0C43.4646 0 56.0012 12.5365 56.0012 28.0005C56.0012 43.4645 43.4646 56.001 28.0006 56.001C12.5366 56.001 0 43.4645 0 28.0005Z" fill="white"/>
<mask id="path-2-inside-1_932_13166" fill="white">
<path fill-rule="evenodd" clip-rule="evenodd" d="M41.2493 14.9954C37.5856 10.9965 31.6519 11.0023 27.9959 15.0083L27.9934 15.011C24.329 11.0121 18.3947 11.018 14.7383 15.0245C11.0817 19.0312 11.088 25.5215 14.7524 29.5211L28.0186 44.001L28.02 43.9995L28.0206 44.0001L41.2633 29.4894C44.9193 25.4835 44.913 18.9943 41.2493 14.9954Z"/>
</mask>
<path d="M27.9959 15.0083L26.5187 13.6601L26.5186 13.6602L27.9959 15.0083ZM41.2493 14.9954L42.7239 13.6443V13.6443L41.2493 14.9954ZM27.9934 15.011L26.5188 16.3622L27.9965 17.9748L29.4708 16.3591L27.9934 15.011ZM14.7383 15.0245L13.261 13.6763L13.261 13.6763L14.7383 15.0245ZM14.7524 29.5211L13.2777 30.8721H13.2777L14.7524 29.5211ZM28.0186 44.001L26.544 45.352L28.0215 46.9647L29.4959 45.3492L28.0186 44.001ZM28.02 43.9995L29.4936 42.6473L28.016 41.037L26.5427 42.6512L28.02 43.9995ZM28.0206 44.0001L26.547 45.3524L28.0246 46.9627L29.4979 45.3483L28.0206 44.0001ZM41.2633 29.4894L42.7406 30.8376V30.8376L41.2633 29.4894ZM29.4732 16.3564C32.3371 13.2184 36.9047 13.214 39.7746 16.3464L42.7239 13.6443C38.2665 8.77907 30.9667 8.78615 26.5187 13.6601L29.4732 16.3564ZM29.4708 16.3591L29.4733 16.3564L26.5186 13.6602L26.516 13.6629L29.4708 16.3591ZM16.2156 16.3727C19.0799 13.2341 23.6483 13.2295 26.5188 16.3622L29.468 13.6598C25.0098 8.79459 17.7094 8.80193 13.261 13.6763L16.2156 16.3727ZM16.227 28.17C13.2622 24.9339 13.257 19.6146 16.2156 16.3727L13.261 13.6763C8.9065 18.4478 8.91394 26.1091 13.2777 30.8721L16.227 28.17ZM29.4933 42.6499L16.227 28.17L13.2777 30.8721L26.544 45.352L29.4933 42.6499ZM26.5427 42.6512L26.5414 42.6528L29.4959 45.3492L29.4973 45.3477L26.5427 42.6512ZM29.4942 42.6479L29.4936 42.6473L26.5464 45.3517L26.547 45.3524L29.4942 42.6479ZM39.786 28.1412L26.5433 42.652L29.4979 45.3483L42.7406 30.8376L39.786 28.1412ZM39.7746 16.3464C42.7388 19.5819 42.744 24.9001 39.786 28.1412L42.7406 30.8376C47.0945 26.0669 47.0871 18.4066 42.7239 13.6443L39.7746 16.3464Z" fill="#F79014" mask="url(#path-2-inside-1_932_13166)"/>
</svg>
