<svg width="63" height="63" viewBox="0 0 63 63" fill="none" xmlns="http://www.w3.org/2000/svg">
<g clip-path="url(#clip0_939_64937)">
<path d="M49.2714 41.4947C49.2714 42.1825 48.9981 42.8421 48.5118 43.3284C48.0255 43.8147 47.3659 44.0879 46.6781 44.0879H15.5595C14.8717 44.0879 14.2121 43.8147 13.7258 43.3284C13.2395 42.8421 12.9663 42.1825 12.9663 41.4947V25.9354C12.9663 25.2476 13.2395 24.588 13.7258 24.1017C14.2121 23.6154 14.8717 23.3422 15.5595 23.3422H18.5987C20.661 23.341 22.6384 22.5212 24.0964 21.0627L26.2487 18.9155C26.7337 18.4304 27.3911 18.1572 28.077 18.1557H34.1555C34.8432 18.1559 35.5027 18.4292 35.9889 18.9155L38.1361 21.0627C38.8586 21.7855 39.7165 22.3588 40.6607 22.7499C41.6049 23.141 42.6169 23.3423 43.6389 23.3422H46.6781C47.3659 23.3422 48.0255 23.6154 48.5118 24.1017C48.9981 24.588 49.2714 25.2476 49.2714 25.9354V41.4947ZM15.5595 20.7489C14.184 20.7489 12.8648 21.2954 11.8921 22.268C10.9195 23.2407 10.373 24.5599 10.373 25.9354L10.373 41.4947C10.373 42.8702 10.9195 44.1894 11.8921 45.1621C12.8648 46.1347 14.184 46.6811 15.5595 46.6811H46.6781C48.0537 46.6811 49.3729 46.1347 50.3455 45.1621C51.3181 44.1894 51.8646 42.8702 51.8646 41.4947V25.9354C51.8646 24.5599 51.3181 23.2407 50.3455 22.268C49.3729 21.2954 48.0537 20.7489 46.6781 20.7489H43.6389C42.2635 20.7486 40.9445 20.202 39.9721 19.2293L37.8249 17.0821C36.8525 16.1094 35.5335 15.5628 34.1581 15.5625H28.0796C26.7041 15.5628 25.3852 16.1094 24.4127 17.0821L22.2656 19.2293C21.2931 20.202 19.9742 20.7486 18.5987 20.7489H15.5595Z" fill="#F79014"/>
<path d="M31.1189 38.9031C29.3995 38.9031 27.7505 38.22 26.5347 37.0042C25.3189 35.7884 24.6358 34.1394 24.6358 32.42C24.6358 30.7006 25.3189 29.0516 26.5347 27.8358C27.7505 26.62 29.3995 25.937 31.1189 25.937C32.8383 25.937 34.4873 26.62 35.7031 27.8358C36.9189 29.0516 37.6019 30.7006 37.6019 32.42C37.6019 34.1394 36.9189 35.7884 35.7031 37.0042C34.4873 38.22 32.8383 38.9031 31.1189 38.9031ZM31.1189 41.4963C33.5261 41.4963 35.8347 40.54 37.5368 38.8379C39.2389 37.1358 40.1952 34.8272 40.1952 32.42C40.1952 30.0128 39.2389 27.7043 37.5368 26.0021C35.8347 24.3 33.5261 23.3438 31.1189 23.3438C28.7117 23.3438 26.4031 24.3 24.701 26.0021C22.9989 27.7043 22.0426 30.0128 22.0426 32.42C22.0426 34.8272 22.9989 37.1358 24.701 38.8379C26.4031 40.54 28.7117 41.4963 31.1189 41.4963ZM18.1528 27.2336C18.1528 27.5775 18.0162 27.9073 17.773 28.1504C17.5299 28.3936 17.2001 28.5302 16.8562 28.5302C16.5123 28.5302 16.1825 28.3936 15.9393 28.1504C15.6962 27.9073 15.5596 27.5775 15.5596 27.2336C15.5596 26.8897 15.6962 26.5599 15.9393 26.3167C16.1825 26.0736 16.5123 25.937 16.8562 25.937C17.2001 25.937 17.5299 26.0736 17.773 26.3167C18.0162 26.5599 18.1528 26.8897 18.1528 27.2336Z" fill="#F79014"/>
</g>
<defs>
<clipPath id="clip0_939_64937">
<rect width="41.4915" height="41.4915" fill="white" transform="translate(10.373 10.375)"/>
</clipPath>
</defs>
</svg>
