<svg width="32" height="32" viewBox="0 0 32 32" fill="none" xmlns="http://www.w3.org/2000/svg">
<path d="M29.5 4.5H2.5C2.10232 4.50046 1.72106 4.65865 1.43985 4.93985C1.15865 5.22106 1.00046 5.60232 1 6V26C1.00046 26.3977 1.15865 26.7789 1.43985 27.0601C1.72106 27.3414 2.10232 27.4995 2.5 27.5H29.5C29.8977 27.4995 30.2789 27.3414 30.5601 27.0601C30.8414 26.7789 30.9995 26.3977 31 26V6C30.9995 5.60232 30.8414 5.22106 30.5601 4.93985C30.2789 4.65865 29.8977 4.50046 29.5 4.5ZM29 6.5V10.5H3V6.5H29ZM3 25.5V14.5H29V25.5H3Z" fill="#737373"/>
<path d="M5.5 19.5H9.5V21.5H5.5V19.5ZM11.5 19.5H15.5V21.5H11.5V19.5Z" fill="#737373"/>
</svg>
