<svg width="32" height="32" viewBox="0 0 32 32" fill="none" xmlns="http://www.w3.org/2000/svg">
<path d="M7.38665 26.0264C6.57331 26.0264 5.81332 25.7464 5.26665 25.2264C4.57332 24.5731 4.23998 23.5864 4.35998 22.5197L4.85332 18.1997C4.94665 17.3864 5.43998 16.3064 6.01332 15.7197L16.96 4.13307C19.6933 1.23974 22.5466 1.15974 25.44 3.89307C28.3333 6.62641 28.4133 9.47974 25.68 12.3731L14.7333 23.9597C14.1733 24.5597 13.1333 25.1197 12.32 25.2531L8.02665 25.9864C7.79998 25.9997 7.59998 26.0264 7.38665 26.0264ZM21.24 3.87974C20.2133 3.87974 19.32 4.51974 18.4133 5.47974L7.46665 17.0797C7.19998 17.3597 6.89332 18.0264 6.83998 18.4131L6.34665 22.7331C6.29332 23.1731 6.39998 23.5331 6.63998 23.7597C6.87998 23.9864 7.23998 24.0664 7.67998 23.9997L11.9733 23.2664C12.36 23.1997 13 22.8531 13.2666 22.5731L24.2133 10.9864C25.8666 9.22641 26.4666 7.59974 24.0533 5.33307C22.9866 4.30641 22.0666 3.87974 21.24 3.87974Z" fill="#F79014"/>
<path d="M23.1199 14.6004C23.0933 14.6004 23.0533 14.6004 23.0266 14.6004C18.8666 14.1871 15.5199 11.0271 14.8799 6.89378C14.7999 6.34712 15.1733 5.84045 15.7199 5.74712C16.2666 5.66712 16.7733 6.04045 16.8666 6.58712C17.3733 9.81378 19.9866 12.2938 23.2399 12.6138C23.7866 12.6671 24.1866 13.1604 24.1333 13.7071C24.0666 14.2138 23.6266 14.6004 23.1199 14.6004Z" fill="#F79014"/>
<path d="M28 30.333H4C3.45333 30.333 3 29.8797 3 29.333C3 28.7863 3.45333 28.333 4 28.333H28C28.5467 28.333 29 28.7863 29 29.333C29 29.8797 28.5467 30.333 28 30.333Z" fill="#F79014"/>
</svg>
