<svg width="66" height="56" viewBox="0 0 66 56" fill="none" xmlns="http://www.w3.org/2000/svg">
<rect x="0.199219" width="65.1953" height="55.6545" rx="3.47841" fill="white"/>
<path d="M54.0652 6.95703H11.5291C9.11497 6.95703 7.15625 8.91575 7.15625 11.3299V44.3249C7.15625 46.7392 9.11497 48.6979 11.5291 48.6979H53.6675C56.0817 48.6979 58.4379 46.7392 58.4379 44.3249V11.3299C58.4379 8.91575 56.4792 6.95703 54.0652 6.95703Z" fill="#F9F9F9"/>
<path d="M53.8813 24.5308C54.9836 24.3032 55.5848 23.5652 55.5848 22.4173C55.5848 19.8209 52.8244 20.1944 50.7657 20.1944L50.7656 27.6647H52.2233V24.6767H52.4238L54.4462 27.6647H56.2319L53.8813 24.5308ZM52.6512 23.6563H52.2232V21.388H52.6695C53.5896 21.388 54.0907 21.7704 54.0907 22.4903C54.0907 23.2555 53.5896 23.6563 52.6512 23.6563Z" fill="black"/>
<path d="M45.6719 20.2031H49.799V21.4785H47.1298V23.1367H49.7077V24.3937H47.1298V26.4162H49.799V27.6733H45.6719V20.2031Z" fill="black"/>
<path d="M39.4146 20.2031L41.4097 25.2318L43.4322 20.2031H45.0265L41.7924 27.8738H41.009L37.8203 20.2031H39.4146Z" fill="black"/>
<path d="M34.3209 19.9297C36.5711 19.9297 38.3841 21.7516 38.3841 23.9927C38.3841 26.2429 36.5619 28.0559 34.3209 28.0559C32.0707 28.0559 30.2578 26.2338 30.2578 23.9927C30.2577 21.7426 32.08 19.9297 34.3209 19.9297Z" fill="#FF6F00"/>
<path d="M29.8292 20.4857V22.2166C27.9982 20.3855 25.5658 21.7886 25.5658 23.9475C25.5658 26.2252 28.0709 27.4551 29.8292 25.6967V27.4277C27.1235 28.7303 24.0625 26.9084 24.0625 23.9475C24.0625 21.1051 27.078 19.1192 29.8292 20.4857Z" fill="black"/>
<path d="M20.974 26.5253C22.0125 26.5253 23.0147 25.1315 20.6734 24.3025C19.307 23.8014 18.8332 23.264 18.8332 22.2345C18.8332 20.1209 21.6208 19.374 23.3609 20.932L22.5956 21.9156C21.6482 20.859 20.3271 21.3508 20.3271 22.1437C20.3271 22.5444 20.5732 22.772 21.4477 23.0818C23.1058 23.6831 23.5977 24.2207 23.5977 25.4139C23.5977 28.1015 20.063 28.8212 18.4414 26.4433L19.3799 25.5415C19.7168 26.1882 20.2816 26.5253 20.974 26.5253Z" fill="black"/>
<path d="M17.8757 20.2031H16.418V27.6733H17.8757V20.2031Z" fill="black"/>
<path d="M58.4374 44.3255V32.2383C54.9018 34.4464 34.4217 44.9213 14.3125 48.6971H53.7225C56.1172 48.6674 58.4374 46.7213 58.4374 44.3255Z" fill="#FF6F00"/>
<path d="M11.7256 20.2031H9.59375V27.6733H11.7255C14.5405 27.6733 15.743 25.6328 15.743 23.9474C15.7431 21.7518 14.1033 20.2031 11.7256 20.2031ZM13.429 25.8331C12.9826 26.234 12.3723 26.4162 11.4339 26.4162H11.0512V21.4785H11.4339C12.3723 21.4785 12.9553 21.6334 13.429 22.0797C13.9483 22.5354 14.2399 23.2276 14.2399 23.9473C14.24 24.667 13.9483 25.3593 13.429 25.8331Z" fill="black"/>
</svg>
