<svg width="22" height="28" viewBox="0 0 22 28" fill="none" xmlns="http://www.w3.org/2000/svg">
<path d="M11.0007 0.666992C7.32465 0.666992 4.33398 3.65766 4.33398 7.33366V11.3337H3.00065C2.29341 11.3337 1.61513 11.6146 1.11503 12.1147C0.614936 12.6148 0.333984 13.2931 0.333984 14.0003V24.667C0.333984 25.3742 0.614936 26.0525 1.11503 26.5526C1.61513 27.0527 2.29341 27.3337 3.00065 27.3337H19.0007C19.7079 27.3337 20.3862 27.0527 20.8863 26.5526C21.3864 26.0525 21.6673 25.3742 21.6673 24.667V14.0003C21.6673 13.2931 21.3864 12.6148 20.8863 12.1147C20.3862 11.6146 19.7079 11.3337 19.0007 11.3337H17.6673V7.33366C17.6673 3.65766 14.6767 0.666992 11.0007 0.666992ZM7.00065 7.33366C7.00065 5.12833 8.79532 3.33366 11.0007 3.33366C13.206 3.33366 15.0007 5.12833 15.0007 7.33366V11.3337H7.00065V7.33366ZM12.334 21.631V24.667H9.66732V21.631C9.20116 21.364 8.82686 20.9621 8.59376 20.4781C8.36065 19.9942 8.2797 19.4509 8.36156 18.92C8.44343 18.3891 8.68427 17.8955 9.05234 17.5042C9.4204 17.113 9.8984 16.8424 10.4233 16.7283C10.8132 16.6421 11.2175 16.6445 11.6063 16.7354C11.9951 16.8262 12.3586 17.0032 12.67 17.2532C12.9813 17.5033 13.2325 17.82 13.4051 18.1801C13.5778 18.5401 13.6674 18.9344 13.6673 19.3337C13.6666 19.8 13.5429 20.2579 13.3088 20.6612C13.0747 21.0645 12.7385 21.399 12.334 21.631Z" fill="#737373"/>
</svg>
