<svg width="79" height="53" viewBox="0 0 79 53" fill="none" xmlns="http://www.w3.org/2000/svg">
<rect width="78.1991" height="52.1307" rx="1.62908" fill="white"/>
<path d="M71.682 26.0653C71.682 36.8225 62.9936 45.6144 52.133 45.6144C41.3759 45.6144 32.584 36.8225 32.584 26.0653C32.584 15.3082 41.2724 6.51633 52.0296 6.51633C62.9936 6.51633 71.682 15.3082 71.682 26.0653Z" fill="#FFB600"/>
<path d="M52.133 6.51633C62.8901 6.51633 71.682 15.3082 71.682 26.0653C71.682 36.8225 62.9936 45.6144 52.133 45.6144C41.3759 45.6144 32.584 36.8225 32.584 26.0653" fill="#F7981D"/>
<path d="M52.1289 6.51633C62.886 6.51633 71.6779 15.3082 71.6779 26.0653C71.6779 36.8225 62.9895 45.6144 52.1289 45.6144" fill="#FF8500"/>
<path d="M25.8578 6.51633C15.2041 6.61976 6.51562 15.3082 6.51562 26.0653C6.51562 36.8225 15.2041 45.6144 26.0646 45.6144C31.1329 45.6144 35.684 43.6491 39.2007 40.5461C39.9248 39.9255 40.5454 39.2014 41.166 38.4774H37.1321C36.6149 37.8568 36.0977 37.1328 35.684 36.5122H42.6141C43.0278 35.8916 43.4415 35.1675 43.7518 34.4435H34.5462C34.2359 33.8229 33.9256 33.0988 33.7187 32.3748H44.4759C45.0965 30.4096 45.5102 28.3409 45.5102 26.1688C45.5102 24.7207 45.3033 23.3761 45.0965 22.0314H33.0981C33.2016 21.3074 33.4084 20.6868 33.6153 19.9627H44.3724C44.1656 19.2387 43.8553 18.5147 43.545 17.8941H34.4428C34.7531 17.17 35.1668 16.5494 35.5806 15.8254H42.5106C42.0969 15.1013 41.5797 14.3773 40.9591 13.7567H37.1321C37.7527 13.0327 38.3733 12.4121 39.0973 11.7915C35.684 8.58501 31.0295 6.72319 25.9612 6.72319C25.9612 6.51633 25.9612 6.51633 25.8578 6.51633Z" fill="#FF5050"/>
<path d="M6.51562 26.0653C6.51562 36.8225 15.2041 45.6144 26.0646 45.6144C31.1329 45.6144 35.684 43.6491 39.2007 40.5461C39.9248 39.9255 40.5454 39.2015 41.166 38.4774H37.1321C36.6149 37.8568 36.0977 37.1328 35.684 36.5122H42.6141C43.0278 35.8916 43.4415 35.1675 43.7518 34.4435H34.5462C34.2359 33.8229 33.9256 33.0989 33.7187 32.3748H44.4759C45.0965 30.4096 45.5102 28.3409 45.5102 26.1688C45.5102 24.7207 45.3033 23.3761 45.0965 22.0314H33.0981C33.2016 21.3074 33.4084 20.6868 33.6153 19.9627H44.3724C44.1656 19.2387 43.8553 18.5147 43.545 17.8941H34.4428C34.7531 17.17 35.1668 16.5494 35.5806 15.8254H42.5106C42.0969 15.1014 41.5797 14.3773 40.9591 13.7567H37.1321C37.7527 13.0327 38.3733 12.4121 39.0973 11.7915C35.684 8.58502 31.0295 6.72321 25.9612 6.72321H25.8578" fill="#E52836"/>
<path d="M26.0604 45.6143C31.1286 45.6143 35.6797 43.649 39.1965 40.546C39.9205 39.9254 40.5411 39.2014 41.1617 38.4773H37.1278C36.6106 37.8567 36.0935 37.1327 35.6797 36.5121H42.6098C43.0235 35.8915 43.4373 35.1674 43.7476 34.4434H34.542C34.2317 33.8228 33.9214 33.0988 33.7145 32.3747H44.4716C45.0922 30.4095 45.506 28.3408 45.506 26.1687C45.506 24.7206 45.2991 23.376 45.0922 22.0313H33.0939C33.1973 21.3073 33.4042 20.6867 33.6111 19.9627H44.3682C44.1613 19.2386 43.851 18.5146 43.5407 17.894H34.4385C34.7488 17.1699 35.1626 16.5493 35.5763 15.8253H42.5064C42.0926 15.1013 41.5755 14.3772 40.9549 13.7566H37.1278C37.7484 13.0326 38.369 12.412 39.0931 11.7914C35.6797 8.58493 31.0252 6.72311 25.9569 6.72311H25.8535" fill="#CB2026"/>
<path d="M32.9957 31.0304L33.306 29.272C33.2025 29.272 32.9957 29.3754 32.7888 29.3754C32.0648 29.3754 31.9613 28.9617 32.0648 28.7548L32.6854 25.1346H33.8231L34.1335 23.1694H33.0991L33.306 21.9282H31.2373C31.2373 21.9282 29.9961 28.7548 29.9961 29.5823C29.9961 30.8235 30.7201 31.3407 31.651 31.3407C32.2716 31.3407 32.7888 31.1338 32.9957 31.0304Z" fill="white"/>
<path d="M33.7188 27.7201C33.7188 30.6162 35.684 31.3403 37.3389 31.3403C38.8904 31.3403 39.5111 31.03 39.5111 31.03L39.9248 29.0647C39.9248 29.0647 38.787 29.5819 37.7527 29.5819C35.4771 29.5819 35.8909 27.9269 35.8909 27.9269H40.1317C40.1317 27.9269 40.442 26.5823 40.442 26.0651C40.442 24.7205 39.7179 23.0656 37.4424 23.0656C35.2703 22.8587 33.7188 25.1342 33.7188 27.7201ZM37.3389 24.7205C38.4767 24.7205 38.2698 26.0651 38.2698 26.1686H35.9943C35.9943 26.0651 36.2012 24.7205 37.3389 24.7205Z" fill="white"/>
<path d="M50.474 31.0301L50.8878 28.7546C50.8878 28.7546 49.8534 29.2718 49.1294 29.2718C47.6813 29.2718 47.0607 28.134 47.0607 26.8928C47.0607 24.4104 48.3019 23.0657 49.75 23.0657C50.7843 23.0657 51.6118 23.6863 51.6118 23.6863L51.9221 21.5142C51.9221 21.5142 50.6809 20.997 49.5431 20.997C47.1641 20.997 44.7852 23.0657 44.7852 26.9962C44.7852 29.5821 46.0264 31.3404 48.5088 31.3404C49.3362 31.3404 50.474 31.0301 50.474 31.0301Z" fill="white"/>
<path d="M21.616 22.8589C20.168 22.8589 19.1336 23.2726 19.1336 23.2726L18.8233 25.031C18.8233 25.031 19.7542 24.6172 21.0989 24.6172C21.8229 24.6172 22.4435 24.7207 22.4435 25.3413C22.4435 25.755 22.3401 25.8584 22.3401 25.8584C22.3401 25.8584 21.7195 25.8584 21.4092 25.8584C19.6508 25.8584 17.6855 26.5825 17.6855 28.9615C17.6855 30.8233 18.9268 31.237 19.6508 31.237C21.0989 31.237 21.7195 30.3061 21.8229 30.3061L21.7195 31.1336H23.5813L24.4087 25.4447C24.4087 22.9623 22.3401 22.8589 21.616 22.8589ZM22.0298 27.5134C22.0298 27.8237 21.8229 29.4786 20.5817 29.4786C19.9611 29.4786 19.7542 28.9615 19.7542 28.6512C19.7542 28.134 20.0645 27.4099 21.616 27.4099C21.9263 27.5134 22.0298 27.5134 22.0298 27.5134Z" fill="white"/>
<path d="M26.3712 31.2374C26.8883 31.2374 29.4742 31.3408 29.4742 28.5481C29.4742 25.9623 26.9918 26.4794 26.9918 25.4451C26.9918 24.9279 27.4055 24.7211 28.1295 24.7211C28.4398 24.7211 29.5776 24.8245 29.5776 24.8245L29.8879 22.9627C29.8879 22.9627 29.1639 22.7558 27.9227 22.7558C26.3712 22.7558 24.8197 23.3764 24.8197 25.4451C24.8197 27.8241 27.4055 27.6172 27.4055 28.5481C27.4055 29.1687 26.6815 29.2722 26.1643 29.2722C25.2334 29.2722 24.3025 28.9619 24.3025 28.9619L23.9922 30.8237C24.0956 31.0305 24.6128 31.2374 26.3712 31.2374Z" fill="white"/>
<path d="M67.6399 21.2038L67.2261 23.9965C67.2261 23.9965 66.3987 22.9622 65.2609 22.9622C63.3991 22.9622 61.7441 25.2377 61.7441 27.927C61.7441 29.582 62.5716 31.3403 64.33 31.3403C65.5712 31.3403 66.2952 30.5129 66.2952 30.5129L66.1918 31.2369H68.2605L69.812 21.3073L67.6399 21.2038ZM66.709 26.6858C66.709 27.8236 66.1918 29.2717 65.054 29.2717C64.33 29.2717 63.9163 28.6511 63.9163 27.6167C63.9163 25.9618 64.6403 24.9274 65.5712 24.9274C66.2952 24.9274 66.709 25.4446 66.709 26.6858Z" fill="white"/>
<path d="M10.3422 31.1334L11.5834 23.6862L11.7903 31.1334H13.2383L15.9276 23.6862L14.7899 31.1334H16.962L18.6169 21.2037H15.2036L13.1349 27.3063L13.0315 21.2037H10.0319L8.37695 31.1334H10.3422Z" fill="white"/>
<path d="M42.4084 31.1337C43.029 27.7204 43.1324 24.9277 44.5805 25.4449C44.7873 24.1002 45.0976 23.5831 45.3045 23.0659C45.3045 23.0659 45.2011 23.0659 44.8908 23.0659C43.9599 23.0659 43.2358 24.3071 43.2358 24.3071L43.4427 23.1693H41.4775L40.1328 31.2372H42.4084V31.1337Z" fill="white"/>
<path d="M55.2332 22.8589C53.7851 22.8589 52.7508 23.2726 52.7508 23.2726L52.4405 25.031C52.4405 25.031 53.3714 24.6172 54.7161 24.6172C55.4401 24.6172 56.0607 24.7207 56.0607 25.3413C56.0607 25.755 55.9573 25.8584 55.9573 25.8584C55.9573 25.8584 55.3367 25.8584 55.0264 25.8584C53.268 25.8584 51.3027 26.5825 51.3027 28.9615C51.3027 30.8233 52.5439 31.237 53.268 31.237C54.7161 31.237 55.3367 30.3061 55.4401 30.3061L55.3367 31.1336H57.1985L58.0259 25.4447C58.1294 22.9623 55.9573 22.8589 55.2332 22.8589ZM55.7504 27.5134C55.7504 27.8237 55.5435 29.4786 54.3023 29.4786C53.6817 29.4786 53.4748 28.9615 53.4748 28.6512C53.4748 28.134 53.7851 27.4099 55.3367 27.4099C55.647 27.5134 55.647 27.5134 55.7504 27.5134Z" fill="white"/>
<path d="M59.7892 31.1337C60.4098 27.7204 60.5133 24.9277 61.9613 25.4449C62.1682 24.1002 62.4785 23.5831 62.6854 23.0659C62.6854 23.0659 62.5819 23.0659 62.2716 23.0659C61.3407 23.0659 60.6167 24.3071 60.6167 24.3071L60.8236 23.1693H58.8583L57.5137 31.2372H59.7892V31.1337Z" fill="white"/>
<path d="M29.7832 29.5818C29.7832 30.823 30.5072 31.3402 31.4381 31.3402C32.1622 31.3402 32.7828 31.1333 32.9897 31.0299L33.3 29.2715C33.1965 29.2715 32.9897 29.3749 32.7828 29.3749C32.0587 29.3749 31.9553 28.9612 32.0587 28.7543L32.6794 25.1342H33.8171L34.1274 23.1689H33.0931L33.3 21.9277" fill="#DCE5E5"/>
<path d="M34.7559 27.7203C34.7559 30.6165 35.6868 31.3405 37.3417 31.3405C38.8932 31.3405 39.5138 31.0302 39.5138 31.0302L39.9276 29.065C39.9276 29.065 38.7898 29.5821 37.7554 29.5821C35.4799 29.5821 35.8936 27.9272 35.8936 27.9272H40.1344C40.1344 27.9272 40.4447 26.5825 40.4447 26.0654C40.4447 24.7207 39.7207 23.0658 37.4451 23.0658C35.273 22.8589 34.7559 25.1345 34.7559 27.7203ZM37.3417 24.7207C38.4795 24.7207 38.6863 26.0654 38.6863 26.1688H35.9971C35.9971 26.0654 36.2039 24.7207 37.3417 24.7207Z" fill="#DCE5E5"/>
<path d="M50.4768 31.0301L50.8905 28.7546C50.8905 28.7546 49.8562 29.2718 49.1322 29.2718C47.6841 29.2718 47.0635 28.134 47.0635 26.8928C47.0635 24.4104 48.3047 23.0657 49.7528 23.0657C50.7871 23.0657 51.6146 23.6863 51.6146 23.6863L51.9249 21.5142C51.9249 21.5142 50.6837 20.997 49.5459 20.997C47.1669 20.997 45.8223 23.0657 45.8223 26.9962C45.8223 29.5821 46.0291 31.3404 48.5115 31.3404C49.339 31.3404 50.4768 31.0301 50.4768 31.0301Z" fill="#DCE5E5"/>
<path d="M18.8233 25.1346C18.8233 25.1346 19.7542 24.7208 21.0989 24.7208C21.8229 24.7208 22.4435 24.8243 22.4435 25.4449C22.4435 25.8586 22.3401 25.962 22.3401 25.962C22.3401 25.962 21.7195 25.962 21.4092 25.962C19.6508 25.962 17.6855 26.6861 17.6855 29.0651C17.6855 30.9269 18.9268 31.3406 19.6508 31.3406C21.0989 31.3406 21.7195 30.4097 21.8229 30.4097L21.7195 31.2372H23.5813L24.4087 25.5483C24.4087 23.1693 22.3401 23.0659 21.5126 23.0659L18.8233 25.1346ZM23.0641 27.5135C23.0641 27.8238 21.8229 29.4788 20.5817 29.4788C19.9611 29.4788 19.7542 28.9616 19.7542 28.6513C19.7542 28.1341 20.0645 27.4101 21.616 27.4101C21.9263 27.5135 23.0641 27.5135 23.0641 27.5135Z" fill="#DCE5E5"/>
<path d="M24.0938 31.0303C24.0938 31.0303 24.7144 31.2372 26.4727 31.2372C26.9899 31.2372 29.5757 31.3406 29.5757 28.5479C29.5757 25.962 27.0933 26.4792 27.0933 25.4449C27.0933 24.9277 27.5071 24.7208 28.2311 24.7208C28.5414 24.7208 29.6792 24.8243 29.6792 24.8243L29.9895 22.9625C29.9895 22.9625 29.2654 22.7556 28.0242 22.7556C26.4727 22.7556 25.9556 23.3762 25.9556 25.4449C25.9556 27.8238 27.5071 27.617 27.5071 28.5479C27.5071 29.1685 26.783 29.2719 26.2659 29.2719" fill="#DCE5E5"/>
<path d="M67.2266 23.9966C67.2266 23.9966 66.3992 22.9623 65.2614 22.9623C63.3996 22.9623 62.779 25.2378 62.779 27.9271C62.779 29.5821 62.5721 31.3404 64.3305 31.3404C65.5717 31.3404 66.2957 30.513 66.2957 30.513L66.1923 31.237H68.261L69.8125 21.3073L67.2266 23.9966ZM67.1232 26.6859C67.1232 27.8237 66.1923 29.2718 65.0545 29.2718C64.3305 29.2718 63.9168 28.6512 63.9168 27.6168C63.9168 25.9619 64.6408 24.9275 65.5717 24.9275C66.2957 24.9275 67.1232 25.4447 67.1232 26.6859Z" fill="#DCE5E5"/>
<path d="M10.3422 31.1335L11.5834 23.6862L11.7903 31.1335H13.2383L15.9276 23.6862L14.7899 31.1335H16.962L18.6169 21.2038H16.0311L13.1349 27.3064L13.0315 21.2038H11.8937L8.37695 31.1335H10.3422Z" fill="#DCE5E5"/>
<path d="M40.2383 31.1337H42.4104C43.031 27.7204 43.1344 24.9277 44.5825 25.4449C44.7894 24.1002 45.0997 23.5831 45.3065 23.0659C45.3065 23.0659 45.2031 23.0659 44.8928 23.0659C43.9619 23.0659 43.2379 24.3071 43.2379 24.3071L43.4447 23.1693" fill="#DCE5E5"/>
<path d="M52.4405 25.1346C52.4405 25.1346 53.3714 24.7208 54.7161 24.7208C55.4401 24.7208 56.0607 24.8243 56.0607 25.4449C56.0607 25.8586 55.9573 25.962 55.9573 25.962C55.9573 25.962 55.3367 25.962 55.0264 25.962C53.268 25.962 51.3027 26.6861 51.3027 29.0651C51.3027 30.9269 52.5439 31.3406 53.268 31.3406C54.7161 31.3406 55.3367 30.4097 55.4401 30.4097L55.3367 31.2372H57.1985L58.0259 25.5483C58.0259 23.1693 55.9573 23.0659 55.1298 23.0659L52.4405 25.1346ZM56.6813 27.5135C56.6813 27.8238 55.4401 29.4788 54.1989 29.4788C53.5783 29.4788 53.3714 28.9616 53.3714 28.6513C53.3714 28.1341 53.6817 27.4101 55.2332 27.4101C55.647 27.5135 56.6813 27.5135 56.6813 27.5135Z" fill="#DCE5E5"/>
<path d="M57.6094 31.1337H59.7815C60.4021 27.7204 60.5055 24.9277 61.9536 25.4449C62.1605 24.1002 62.4708 23.5831 62.6776 23.0659C62.6776 23.0659 62.5742 23.0659 62.2639 23.0659C61.333 23.0659 60.609 24.3071 60.609 24.3071L60.8158 23.1693" fill="#DCE5E5"/>
</svg>
