<svg width="32" height="32" viewBox="0 0 32 32" fill="none" xmlns="http://www.w3.org/2000/svg">
<path d="M18.8037 25.1962L18.8013 25.1994L16.8013 27.8527L16.7998 27.8546C16.521 28.2265 16.2216 28.3346 15.9998 28.3346C15.7781 28.3346 15.4787 28.2265 15.1998 27.8546L15.1984 27.8527L13.2025 25.2048C12.9758 24.8968 12.6617 24.6742 12.3737 24.5302C12.0814 24.3841 11.7143 24.268 11.3332 24.268H9.33317C6.20154 24.268 3.6665 21.7384 3.6665 18.628V17.2946V9.3213C3.6665 6.19619 6.20285 3.66797 9.33317 3.66797H22.6665C25.7968 3.66797 28.3332 6.19619 28.3332 9.3213V18.628C28.3332 21.7384 25.7981 24.268 22.6665 24.268H20.6665C19.9359 24.268 19.2432 24.6179 18.8037 25.1962Z" fill="white" stroke="#333333" stroke-width="2"/>
<path d="M22.6668 11.668H9.3335C8.78683 11.668 8.3335 11.2146 8.3335 10.668C8.3335 10.1213 8.78683 9.66797 9.3335 9.66797H22.6668C23.2135 9.66797 23.6668 10.1213 23.6668 10.668C23.6668 11.2146 23.2135 11.668 22.6668 11.668Z" fill="#333333"/>
<path d="M17.3335 18.332H9.3335C8.78683 18.332 8.3335 17.8787 8.3335 17.332C8.3335 16.7854 8.78683 16.332 9.3335 16.332H17.3335C17.8802 16.332 18.3335 16.7854 18.3335 17.332C18.3335 17.8787 17.8802 18.332 17.3335 18.332Z" fill="#333333"/>
</svg>
