<svg width="40" height="40" viewBox="0 0 40 40" fill="none" xmlns="http://www.w3.org/2000/svg">
<path d="M13.3335 11.2497C13.3335 7.57336 16.3239 4.58301 20.0002 4.58301C23.6757 4.58301 26.6655 7.57205 26.6668 11.2473C26.6515 14.8545 23.842 17.7628 20.2606 17.8997H20.2606H20.2605H20.2605H20.2604H20.2604H20.2603H20.2602H20.2602H20.2601H20.2601H20.26H20.2599H20.2599H20.2598H20.2598H20.2597H20.2596H20.2596H20.2595H20.2594H20.2594H20.2593H20.2592H20.2592H20.2591H20.2591H20.259H20.2589H20.2589H20.2588H20.2587H20.2587H20.2586H20.2585H20.2585H20.2584H20.2583H20.2583H20.2582H20.2581H20.2581H20.258H20.2579H20.2579H20.2578H20.2577H20.2577H20.2576H20.2575H20.2574H20.2574H20.2573H20.2572H20.2572H20.2571H20.257H20.257H20.2569H20.2568H20.2567H20.2567H20.2566H20.2565H20.2564H20.2564H20.2563H20.2562H20.2561H20.2561H20.256H20.2559H20.2558H20.2558H20.2557H20.2556H20.2555H20.2555H20.2554H20.2553H20.2552H20.2552H20.2551H20.255H20.2549H20.2548H20.2548H20.2547H20.2546H20.2545H20.2544H20.2544H20.2543H20.2542H20.2541H20.254H20.2539H20.2539H20.2538H20.2537H20.2536H20.2535H20.2534H20.2534H20.2533H20.2532H20.2531H20.253H20.2529H20.2528H20.2528H20.2527H20.2526H20.2525H20.2524H20.2523H20.2522H20.2521H20.252H20.252H20.2519H20.2518H20.2517H20.2516H20.2515H20.2514H20.2513H20.2512H20.2511H20.251H20.2509H20.2508H20.2507H20.2506H20.2506H20.2505H20.2504H20.2503H20.2502H20.25H20.2498H20.2496H20.2494H20.2492H20.249H20.2488H20.2486H20.2484H20.2482H20.248H20.2478H20.2477H20.2475H20.2473H20.2471H20.2469H20.2467H20.2465H20.2463H20.2461H20.246H20.2458H20.2458C20.0796 17.8824 19.9132 17.8844 19.7616 17.8972C16.0998 17.7303 13.3335 14.8241 13.3335 11.2497Z" stroke="#333333" stroke-width="2.5"/>
<path d="M12.2301 33.2793L12.2266 33.2771C10.3793 32.0455 9.5166 30.4965 9.5166 28.9671C9.5166 27.4368 10.3802 25.8717 12.2425 24.6244C14.3381 23.2382 17.1503 22.5088 20.0208 22.5088C22.8928 22.5088 25.6959 23.239 27.7732 24.6239C29.6115 25.8493 30.4689 27.3975 30.4833 28.9388C30.4814 30.4843 29.6173 32.0326 27.7687 33.2801C25.6832 34.6799 22.8734 35.4171 19.9999 35.4171C17.1259 35.4171 14.3156 34.6796 12.2301 33.2793Z" stroke="#333333" stroke-width="2.5"/>
</svg>
