<svg width="30" height="30" viewBox="0 0 30 30" fill="none" xmlns="http://www.w3.org/2000/svg">
<path d="M22.5467 29.2284C21.84 29.2284 20.9333 29.0017 19.8 28.3351L15.8133 25.9751C15.4 25.7351 14.6 25.7351 14.2 25.9751L10.2 28.3351C7.83999 29.7351 6.45333 29.1751 5.82666 28.7217C5.21333 28.2684 4.25333 27.1084 4.87999 24.4417L5.82666 20.3484C5.93333 19.9217 5.71999 19.1884 5.39999 18.8684L2.09333 15.5617C0.439994 13.9084 0.573328 12.4951 0.799994 11.8017C1.02666 11.1084 1.74666 9.88172 4.03999 9.49505L8.29333 8.78839C8.69333 8.72172 9.26666 8.29505 9.43999 7.93505L11.8 3.22839C12.8667 1.08172 14.2667 0.761719 15 0.761719C15.7333 0.761719 17.1333 1.08172 18.2 3.22839L20.5467 7.92172C20.7333 8.28172 21.3067 8.70839 21.7067 8.77505L25.96 9.48172C28.2667 9.86839 28.9867 11.0951 29.2 11.7884C29.4133 12.4817 29.5467 13.8951 27.9067 15.5484L24.6 18.8684C24.28 19.1884 24.08 19.9084 24.1733 20.3484L25.12 24.4417C25.7333 27.1084 24.7867 28.2684 24.1733 28.7217C23.84 28.9617 23.3067 29.2284 22.5467 29.2284ZM15 23.7884C15.6533 23.7884 16.3067 23.9484 16.8267 24.2551L20.8133 26.6151C21.9733 27.3084 22.7067 27.3084 22.9867 27.1084C23.2667 26.9084 23.4667 26.2017 23.1733 24.8951L22.2267 20.8017C21.9733 19.6951 22.3867 18.2684 23.1867 17.4551L26.4933 14.1484C27.1467 13.4951 27.44 12.8551 27.3067 12.4151C27.16 11.9751 26.5467 11.6151 25.64 11.4684L21.3867 10.7617C20.36 10.5884 19.24 9.76172 18.7733 8.82839L16.4267 4.13505C16 3.28172 15.4667 2.77505 15 2.77505C14.5333 2.77505 14 3.28172 13.5867 4.13505L11.2267 8.82839C10.76 9.76172 9.63999 10.5884 8.61333 10.7617L4.37333 11.4684C3.46666 11.6151 2.85333 11.9751 2.70666 12.4151C2.55999 12.8551 2.86666 13.5084 3.51999 14.1484L6.82666 17.4551C7.62666 18.2551 8.03999 19.6951 7.78666 20.8017L6.83999 24.8951C6.53333 26.2151 6.74666 26.9084 7.02666 27.1084C7.30666 27.3084 8.02666 27.2951 9.19999 26.6151L13.1867 24.2551C13.6933 23.9484 14.3467 23.7884 15 23.7884Z" fill="#333333"/>
</svg>
