<svg width="57" height="56" viewBox="0 0 57 56" fill="none" xmlns="http://www.w3.org/2000/svg">
<rect width="56.004" height="56" rx="28" fill="#F79014"/>
<path d="M43.7061 12.2958C43.8472 12.4371 43.9436 12.6167 43.9835 12.8124C44.0233 13.008 44.0048 13.211 43.9303 13.3962L32.0725 43.0396C31.968 43.3007 31.7935 43.5279 31.5682 43.6961C31.343 43.8644 31.0756 43.9673 30.7956 43.9934C30.5156 44.0195 30.2339 43.9679 29.9814 43.8442C29.7288 43.7205 29.5153 43.5295 29.3643 43.2923L22.8883 33.1137L12.7097 26.6376C12.4719 26.4868 12.2804 26.2732 12.1563 26.0205C12.0323 25.7677 11.9805 25.4856 12.0066 25.2052C12.0327 24.9248 12.1358 24.6571 12.3045 24.4317C12.4731 24.2062 12.7008 24.0317 12.9623 23.9274L42.6057 12.0737C42.7909 11.9992 42.994 11.9807 43.1896 12.0205C43.3852 12.0604 43.5649 12.1568 43.7061 12.2979V12.2958ZM24.922 32.5186L30.5483 41.3585L40.193 17.2476L24.922 32.5186ZM38.7523 15.8069L14.6415 25.4517L23.4833 31.0759L38.7544 15.8069H38.7523Z" fill="white"/>
</svg>
