<svg width="32" height="32" viewBox="0 0 32 32" fill="none" xmlns="http://www.w3.org/2000/svg">
<path d="M5 11H11V5H5V11ZM7 7H9V9H7V7Z" fill="#333333"/>
<path d="M13 11H19V5H13V11ZM15 7H17V9H15V7Z" fill="#333333"/>
<path d="M21 5V11H27V5H21ZM25 9H23V7H25V9Z" fill="#333333"/>
<path d="M5 19H11V13H5V19ZM7 15H9V17H7V15Z" fill="#333333"/>
<path d="M13 19H19V13H13V19ZM15 15H17V17H15V15Z" fill="#333333"/>
<path d="M21 19H27V13H21V19ZM23 15H25V17H23V15Z" fill="#333333"/>
<path d="M5 27H11V21H5V27ZM7 23H9V25H7V23Z" fill="#333333"/>
<path d="M13 27H19V21H13V27ZM15 23H17V25H15V23Z" fill="#333333"/>
<path d="M21 27H27V21H21V27ZM23 23H25V25H23V23Z" fill="#333333"/>
</svg>
