<svg width="73" height="51" viewBox="0 0 73 51" fill="none" xmlns="http://www.w3.org/2000/svg">
<rect width="73" height="50.345" rx="3.14655" fill="white"/>
<path d="M66.7068 9.69131H6.29297V39.8982H66.7068V9.69131Z" fill="#F6F6F6"/>
<path fill-rule="evenodd" clip-rule="evenodd" d="M62.1757 6.29309C59.155 6.29309 27.1738 6.29309 9.31366 6.29309C7.80331 6.29309 6.29297 7.80344 6.29297 9.31378V13.8448H66.7068C66.7068 13.8448 66.7068 20.8573 66.7068 10.8241C66.7068 7.80344 65.1964 6.29309 62.1757 6.29309Z" fill="#265697"/>
<path fill-rule="evenodd" clip-rule="evenodd" d="M6.29297 36.5001C6.29297 36.5001 6.29297 36.5001 6.29297 39.5208C6.29297 42.5415 7.80331 44.0518 10.824 44.0518C27.6731 44.0518 59.155 44.0518 62.1757 44.0518C65.1964 44.0518 66.7068 42.5415 66.7068 39.5208V36.5001H6.29297Z" fill="#D97B16"/>
<path fill-rule="evenodd" clip-rule="evenodd" d="M48.4372 17.5385C47.5905 17.2139 46.2638 16.8656 44.6069 16.8656C40.384 16.8656 37.4094 19.0387 37.384 22.1529C37.3602 24.455 39.5076 25.7392 41.1287 26.5056C42.7923 27.2909 43.3515 27.7917 43.3435 28.493C43.333 29.5669 42.015 30.0575 40.7867 30.0575C39.0761 30.0575 38.1674 29.8147 36.7638 29.2165L36.2131 28.9619L35.6133 32.5484C36.6114 32.9956 38.4573 33.3831 40.3739 33.4032C44.8663 33.4032 47.7827 31.2551 47.8158 27.9295C47.8319 26.1069 46.6932 24.7199 44.2277 23.5765C42.7339 22.8354 41.819 22.3408 41.8287 21.5903C41.8287 20.9244 42.6031 20.2123 44.2762 20.2123C45.6737 20.1901 46.686 20.5015 47.4749 20.8261L47.8578 21.0109L48.4372 17.5385Z" fill="#265697"/>
<path fill-rule="evenodd" clip-rule="evenodd" d="M59.3951 17.1591H56.0928C55.0698 17.1591 54.3042 17.4444 53.8549 18.4877L47.5078 33.1703H51.9956C51.9956 33.1703 52.7293 31.1961 52.8953 30.7626C53.3857 30.7626 57.7453 30.7695 58.3686 30.7695C58.4965 31.3304 58.8885 33.1703 58.8885 33.1703H62.8541L59.3951 17.1591ZM54.1252 27.4856C54.4786 26.5625 55.8279 23.0069 55.8279 23.0069C55.8027 23.0496 56.1787 22.0794 56.3946 21.4778L56.6834 22.8591C56.6834 22.8591 57.5017 26.6835 57.6728 27.4855L54.1252 27.4856Z" fill="#265697"/>
<path fill-rule="evenodd" clip-rule="evenodd" d="M28.6641 33.1653L31.3361 17.1439H35.6098L32.936 33.1653H28.6641Z" fill="#265697"/>
<path fill-rule="evenodd" clip-rule="evenodd" d="M25.08 17.1556L20.8959 28.0811L20.4501 25.8608C19.6712 23.3014 17.2444 20.5283 14.5312 19.14L18.3571 33.1515L22.8788 33.1463L29.607 17.1556H25.08Z" fill="#265697"/>
<path fill-rule="evenodd" clip-rule="evenodd" d="M17.0162 17.1459H10.1249L10.0703 17.4792C15.4317 18.8054 18.9793 22.0102 20.4519 25.8609L18.9535 18.4985C18.6948 17.484 17.9444 17.1812 17.0162 17.1459Z" fill="#D97B16"/>
</svg>
