<svg width="80" height="55" viewBox="0 0 80 55" fill="none" xmlns="http://www.w3.org/2000/svg">
<rect x="0.394531" width="79.2246" height="54.6377" rx="3.41485" fill="white"/>
<g clip-path="url(#clip0_1369_1855)">
<path fill-rule="evenodd" clip-rule="evenodd" d="M67.8705 6.82971C64.5922 6.82971 29.8839 6.82971 10.5009 6.82971C8.86179 6.82971 7.22266 8.46884 7.22266 10.108V42.8906C7.22266 46.1688 8.86179 47.808 12.14 47.808C30.4259 47.808 64.5922 47.808 67.8705 47.808C71.1487 47.808 72.7878 46.1688 72.7878 42.8906V11.7471C72.7878 8.46884 71.1487 6.82971 67.8705 6.82971Z" fill="#306FC5"/>
<path fill-rule="evenodd" clip-rule="evenodd" d="M12.7625 21.8382L11.4926 18.7439L10.2301 21.8382H12.7625ZM40.7366 20.606C40.4816 20.7608 40.1801 20.7659 39.8189 20.7659H37.5651V19.0419H39.8495C40.1728 19.0419 40.5102 19.0564 40.7293 19.1819C40.97 19.295 41.1189 19.5357 41.1189 19.8681C41.1189 20.2073 40.9773 20.4803 40.7366 20.606C40.9773 20.4803 40.7366 20.606 40.7366 20.606ZM56.815 21.8382L55.5311 18.7439L54.2542 21.8382H56.815ZM26.8439 25.1874H24.9419L24.9349 19.1084L22.2447 25.1874H20.6158L17.9186 19.103V25.1874H14.1451L13.4323 23.4561H9.56941L8.84928 25.1874H6.83427L10.1566 17.4256H12.913L16.0684 24.7744V17.4256H19.0964L21.5244 22.691L23.7548 17.4256H26.8436V25.1874H26.8439ZM34.4242 25.1874H28.2265V17.4256H34.4242V19.0419H30.0819V20.441H34.32V22.032H30.0819V23.5821H34.4242V25.1874ZM43.1627 19.516C43.1627 20.7535 42.3367 21.3929 41.8554 21.5849C42.2614 21.7394 42.6081 22.0124 42.7731 22.2385C43.0351 22.6246 43.0803 22.9694 43.0803 23.6626V25.1874H41.209L41.202 24.2086C41.202 23.7415 41.2467 23.0698 40.9091 22.6964C40.638 22.4235 40.2248 22.3642 39.5569 22.3642H37.5653V25.1874H35.7102V17.4256H39.9774C40.9255 17.4256 41.6241 17.4507 42.2239 17.7974C42.8108 18.1441 43.1627 18.6503 43.1627 19.516C43.1627 18.6503 43.1627 19.516 43.1627 19.516ZM46.1317 25.1874H44.2387V17.4256H46.1317V25.1874ZM68.0933 25.1874H65.4643L61.9477 19.3617V25.1874H58.1693L57.4473 23.4561H53.5933L52.8929 25.1874H50.722C49.8202 25.1874 48.6784 24.9879 48.0318 24.3289C47.3798 23.6699 47.0405 22.7772 47.0405 21.3657C47.0405 20.2146 47.2433 19.1623 48.0407 18.3307C48.6405 17.7112 49.5797 17.4256 50.8582 17.4256H52.6543V19.0888H50.8959C50.2188 19.0888 49.8365 19.1894 49.4683 19.5486C49.152 19.8754 48.935 20.4932 48.935 21.3067C48.935 22.1383 49.1003 22.7379 49.4451 23.1295C49.7307 23.4367 50.2498 23.5299 50.7381 23.5299H51.5713L54.1861 17.4259H56.966L60.1071 24.7674V17.4259H62.9319L66.1931 22.8315V17.4259H68.0933V25.1874ZM6.81273 26.7119H9.98262L10.6974 24.9879H12.2975L13.0104 26.7119H19.2474V25.3939L19.8041 26.7175H23.0419L23.5986 25.3742V26.7119H39.0987L39.0915 23.882H39.3914C39.6014 23.8892 39.6627 23.9087 39.6627 24.2554V26.7119H47.6794V26.0531C48.326 26.3996 49.3318 26.7119 50.6552 26.7119H54.0279L54.7496 24.9879H56.3498L57.0556 26.7119H63.5548V25.0743L64.539 26.7119H69.7471V15.8866H64.5929V17.1651L63.8711 15.8866H58.5823V17.1651L57.9195 15.8866H50.7756C49.5797 15.8866 48.5286 16.0535 47.6794 16.5187V15.8866H42.7495V16.5187C42.2092 16.0392 41.4729 15.8866 40.6542 15.8866H22.6432L21.4347 18.6826L20.1937 15.8866H14.5207V17.1651L13.8974 15.8866H9.05928L6.8125 21.0335V26.7119H6.81273ZM72.8037 32.4276H69.4224C69.0848 32.4276 68.8605 32.4402 68.6716 32.5678C68.4759 32.6935 68.4005 32.8801 68.4005 33.1264C68.4005 33.4193 68.5658 33.6185 68.8062 33.7046C69.0019 33.7728 69.2122 33.7927 69.5212 33.7927L70.5267 33.8196C71.5414 33.8446 72.2186 34.0191 72.6316 34.4444C72.7068 34.5037 72.752 34.5702 72.8037 34.6366V32.4276ZM72.8037 37.546C72.353 38.205 71.4749 38.5391 70.286 38.5391H66.7032V36.8743H70.2715C70.6255 36.8743 70.8732 36.8277 71.0223 36.6821C71.1516 36.562 71.2417 36.3876 71.2417 36.1757C71.2417 35.9495 71.1516 35.77 71.0151 35.6623C70.8805 35.5438 70.6845 35.49 70.3614 35.49C68.6194 35.4308 66.4461 35.5438 66.4461 33.087C66.4461 31.961 67.1611 30.7757 69.108 30.7757H72.8035V29.231H69.37C68.3338 29.231 67.5811 29.4791 67.048 29.865V29.231H61.9694C61.1573 29.231 60.204 29.4323 59.7531 29.865V29.231H50.684V29.865C49.9623 29.3443 48.7444 29.231 48.1823 29.231H42.2003V29.865C41.6293 29.312 40.3594 29.231 39.5855 29.231H32.8905L31.3585 30.889L29.9236 29.231H19.9228V40.0638H29.7354L31.314 38.3796L32.8011 40.0638L38.8496 40.0692V37.5209H39.4443C40.2468 37.5333 41.1933 37.501 42.0284 37.14V40.0636H47.0174V37.2402H47.258C47.5652 37.2402 47.5954 37.2528 47.5954 37.5598V40.0634H62.7509C63.7131 40.0634 64.7188 39.8171 65.2758 39.3702V40.0634H70.0831C71.0834 40.0634 72.0604 39.9231 72.8037 39.564V37.546ZM65.4032 34.4444C65.7644 34.8183 65.958 35.2903 65.958 36.0893C65.958 37.7595 64.9146 38.5391 63.0435 38.5391H59.43V36.8743H63.029C63.3809 36.8743 63.6305 36.8277 63.7868 36.6821C63.9144 36.562 64.006 36.3876 64.006 36.1757C64.006 35.9495 63.9069 35.77 63.7796 35.6623C63.6377 35.5438 63.442 35.49 63.1189 35.49C61.3839 35.4308 59.2111 35.5438 59.2111 33.087C59.2111 31.961 59.9186 30.7757 61.8636 30.7757H65.583V32.428H62.1797C61.8423 32.428 61.6229 32.4407 61.4364 32.5683C61.2331 32.694 61.1578 32.8806 61.1578 33.1268C61.1578 33.4197 61.3303 33.619 61.5637 33.7051C61.7594 33.7732 61.9697 33.7931 62.2857 33.7931L63.2844 33.8201C64.2916 33.8446 64.9829 34.0188 65.4032 34.4444C64.9829 34.0188 65.4032 34.4444 65.4032 34.4444ZM48.6622 33.965C48.4141 34.1122 48.1072 34.1249 47.7462 34.1249H45.4923V32.3812H47.7768C48.1072 32.3812 48.4377 32.3882 48.6622 32.5214C48.9027 32.6472 49.0464 32.8876 49.0464 33.2198C49.0464 33.552 48.9027 33.8196 48.6622 33.965C48.9027 33.8196 48.6622 33.965 48.6622 33.965ZM49.7827 34.9312C50.1957 35.0836 50.5333 35.3568 50.6915 35.5829C50.9535 35.962 50.9914 36.3157 50.9989 37V38.5391H49.1363V37.5677C49.1363 37.1007 49.1813 36.4091 48.8364 36.0481C48.5653 35.77 48.1521 35.7035 47.4753 35.7035H45.4926V38.5391H43.6283V30.7754H47.9117C48.8509 30.7754 49.535 30.8169 50.1439 31.1418C50.7294 31.4956 51.0977 31.9802 51.0977 32.8658C51.0975 34.105 50.2711 34.7373 49.7827 34.9312C50.2711 34.7373 49.7827 34.9312 49.7827 34.9312ZM52.1264 30.7754H58.3184V32.381H53.974V33.7924H58.2124V35.3764H53.974V36.9211L58.3184 36.9281V38.5391H52.1264V30.7754ZM39.6091 34.3583H37.2116V32.3812H39.6306C40.3004 32.3812 40.7654 32.6542 40.7654 33.3331C40.7654 34.0045 40.322 34.3583 39.6091 34.3583ZM35.3637 37.833L32.5153 34.6706L35.3637 31.6086V37.833ZM28.0076 36.9211H23.4462V35.3764H27.5193V33.7924H23.4462V32.381H28.0975L30.1268 34.6434L28.0076 36.9211ZM42.7572 33.3331C42.7572 35.4897 41.1482 35.935 39.5265 35.935H37.2116V38.5391H33.6055L31.321 35.969L28.9469 38.5391H21.5981V30.7754H29.06L31.3426 33.3202L33.7024 30.7754H39.6306C41.103 30.7754 42.7572 31.183 42.7572 33.3331C42.7572 31.183 42.7572 33.3331 42.7572 33.3331Z" fill="white"/>
</g>
<defs>
<clipPath id="clip0_1369_1855">
<rect width="65.5652" height="40.9782" fill="white" transform="translate(7.22461 6.82971)"/>
</clipPath>
</defs>
</svg>
