<svg width="32" height="32" viewBox="0 0 32 32" fill="none" xmlns="http://www.w3.org/2000/svg">
<path d="M4.01367 20.9466C4.01367 26.9333 6.41367 29.3333 12.4003 29.3333H19.587C25.5737 29.3333 27.9737 26.9333 27.9737 20.9466V14.96" stroke="#333333" stroke-width="1.5" stroke-linecap="round" stroke-linejoin="round"/>
<path d="M16 16.0003C18.44 16.0003 20.24 14.0137 20 11.5737L19.12 2.66699H12.8933L12 11.5737C11.76 14.0137 13.56 16.0003 16 16.0003Z" stroke="#333333" stroke-width="1.5" stroke-linecap="round" stroke-linejoin="round"/>
<path d="M24.4131 16.0003C27.1064 16.0003 29.0797 13.8137 28.8131 11.1337L28.4397 7.46699C27.9597 4.00033 26.6264 2.66699 23.1331 2.66699H19.0664L19.9997 12.0137C20.2264 14.2137 22.2131 16.0003 24.4131 16.0003Z" stroke="#333333" stroke-width="1.5" stroke-linecap="round" stroke-linejoin="round"/>
<path d="M7.51984 16.0003C9.71984 16.0003 11.7065 14.2137 11.9198 12.0137L12.2132 9.06699L12.8532 2.66699H8.78651C5.29318 2.66699 3.95984 4.00033 3.47984 7.46699L3.11984 11.1337C2.85318 13.8137 4.82651 16.0003 7.51984 16.0003Z" stroke="#333333" stroke-width="1.5" stroke-linecap="round" stroke-linejoin="round"/>
<path d="M16.0013 22.667C13.7746 22.667 12.668 23.7737 12.668 26.0003V29.3337H19.3346V26.0003C19.3346 23.7737 18.228 22.667 16.0013 22.667Z" stroke="#333333" stroke-width="1.5" stroke-linecap="round" stroke-linejoin="round"/>
</svg>
