<svg width="32" height="24" viewBox="0 0 32 24" fill="none" xmlns="http://www.w3.org/2000/svg">
<path d="M0 4C0 2.93913 0.421427 1.92172 1.17157 1.17157C1.92172 0.421427 2.93913 0 4 0H28C29.0609 0 30.0783 0.421427 30.8284 1.17157C31.5786 1.92172 32 2.93913 32 4V20C32 21.0609 31.5786 22.0783 30.8284 22.8284C30.0783 23.5786 29.0609 24 28 24H4C2.93913 24 1.92172 23.5786 1.17157 22.8284C0.421427 22.0783 0 21.0609 0 20V4ZM5 6C4.73478 6 4.48043 6.10536 4.29289 6.29289C4.10536 6.48043 4 6.73478 4 7V9C4 9.26522 4.10536 9.51957 4.29289 9.70711C4.48043 9.89464 4.73478 10 5 10H9C9.26522 10 9.51957 9.89464 9.70711 9.70711C9.89464 9.51957 10 9.26522 10 9V7C10 6.73478 9.89464 6.48043 9.70711 6.29289C9.51957 6.10536 9.26522 6 9 6H5ZM5 12C4.73478 12 4.48043 12.1054 4.29289 12.2929C4.10536 12.4804 4 12.7348 4 13C4 13.2652 4.10536 13.5196 4.29289 13.7071C4.48043 13.8946 4.73478 14 5 14H15C15.2652 14 15.5196 13.8946 15.7071 13.7071C15.8946 13.5196 16 13.2652 16 13C16 12.7348 15.8946 12.4804 15.7071 12.2929C15.5196 12.1054 15.2652 12 15 12H5ZM5 16C4.73478 16 4.48043 16.1054 4.29289 16.2929C4.10536 16.4804 4 16.7348 4 17C4 17.2652 4.10536 17.5196 4.29289 17.7071C4.48043 17.8946 4.73478 18 5 18H7C7.26522 18 7.51957 17.8946 7.70711 17.7071C7.89464 17.5196 8 17.2652 8 17C8 16.7348 7.89464 16.4804 7.70711 16.2929C7.51957 16.1054 7.26522 16 7 16H5ZM11 16C10.7348 16 10.4804 16.1054 10.2929 16.2929C10.1054 16.4804 10 16.7348 10 17C10 17.2652 10.1054 17.5196 10.2929 17.7071C10.4804 17.8946 10.7348 18 11 18H13C13.2652 18 13.5196 17.8946 13.7071 17.7071C13.8946 17.5196 14 17.2652 14 17C14 16.7348 13.8946 16.4804 13.7071 16.2929C13.5196 16.1054 13.2652 16 13 16H11ZM17 16C16.7348 16 16.4804 16.1054 16.2929 16.2929C16.1054 16.4804 16 16.7348 16 17C16 17.2652 16.1054 17.5196 16.2929 17.7071C16.4804 17.8946 16.7348 18 17 18H19C19.2652 18 19.5196 17.8946 19.7071 17.7071C19.8946 17.5196 20 17.2652 20 17C20 16.7348 19.8946 16.4804 19.7071 16.2929C19.5196 16.1054 19.2652 16 19 16H17ZM23 16C22.7348 16 22.4804 16.1054 22.2929 16.2929C22.1054 16.4804 22 16.7348 22 17C22 17.2652 22.1054 17.5196 22.2929 17.7071C22.4804 17.8946 22.7348 18 23 18H25C25.2652 18 25.5196 17.8946 25.7071 17.7071C25.8946 17.5196 26 17.2652 26 17C26 16.7348 25.8946 16.4804 25.7071 16.2929C25.5196 16.1054 25.2652 16 25 16H23Z" fill="#737373"/>
</svg>
