<svg width="32" height="32" viewBox="0 0 32 32" fill="none" xmlns="http://www.w3.org/2000/svg">
<path d="M29.3334 12.332H2.66675C2.12008 12.332 1.66675 11.8787 1.66675 11.332C1.66675 10.7854 2.12008 10.332 2.66675 10.332H29.3334C29.8801 10.332 30.3334 10.7854 30.3334 11.332C30.3334 11.8787 29.8801 12.332 29.3334 12.332Z" fill="#333333"/>
<path d="M10.6667 23H8C7.45333 23 7 22.5467 7 22C7 21.4533 7.45333 21 8 21H10.6667C11.2133 21 11.6667 21.4533 11.6667 22C11.6667 22.5467 11.2133 23 10.6667 23Z" fill="#333333"/>
<path d="M19.3333 23H14C13.4533 23 13 22.5467 13 22C13 21.4533 13.4533 21 14 21H19.3333C19.88 21 20.3333 21.4533 20.3333 22C20.3333 22.5467 19.88 23 19.3333 23Z" fill="#333333"/>
<path d="M23.4134 28.3346H8.58675C3.28008 28.3346 1.66675 26.7346 1.66675 21.4813V10.5213C1.66675 5.26797 3.28008 3.66797 8.58675 3.66797H23.4001C28.7067 3.66797 30.3201 5.26797 30.3201 10.5213V21.468C30.3334 26.7346 28.7201 28.3346 23.4134 28.3346ZM8.58675 5.66797C4.40008 5.66797 3.66675 6.38797 3.66675 10.5213V21.468C3.66675 25.6013 4.40008 26.3213 8.58675 26.3213H23.4001C27.5867 26.3213 28.3201 25.6013 28.3201 21.468V10.5213C28.3201 6.38797 27.5867 5.66797 23.4001 5.66797H8.58675Z" fill="#333333"/>
</svg>
