<svg width="46" height="38" viewBox="0 0 46 38" fill="none" xmlns="http://www.w3.org/2000/svg">
<rect width="46" height="38" rx="4" fill="white"/>
<path d="M35.8915 8H10.1085C8.946 8 8 8.946 8 10.1085V27.8915C8 29.054 8.946 30 10.1085 30H35.8915C37.054 30 38 29.054 38 27.8915V10.1085C38 8.946 37.054 8 35.8915 8ZM37 27.8915C37 28.5025 36.503 29 35.8915 29H10.1085C9.497 29 9 28.5025 9 27.8915V10.1085C9 9.4975 9.497 9 10.1085 9H35.8915C36.503 9 37 9.4975 37 10.1085V27.8915Z" fill="#0F82D6"/>
<path d="M16 22.5H11.5C11.2235 22.5 11 22.724 11 23C11 23.276 11.2235 23.5 11.5 23.5H16C16.2765 23.5 16.5 23.276 16.5 23C16.5 22.724 16.2765 22.5 16 22.5Z" fill="#0F82D6"/>
<path d="M22.5 22.5H18C17.7235 22.5 17.5 22.724 17.5 23C17.5 23.276 17.7235 23.5 18 23.5H22.5C22.7765 23.5 23 23.276 23 23C23 22.724 22.7765 22.5 22.5 22.5Z" fill="#0F82D6"/>
<path d="M12 25H11.5C11.2235 25 11 25.224 11 25.5C11 25.776 11.2235 26 11.5 26H12C12.2765 26 12.5 25.776 12.5 25.5C12.5 25.224 12.2765 25 12 25Z" fill="#0F82D6"/>
<path d="M15 25H14C13.7235 25 13.5 25.224 13.5 25.5C13.5 25.776 13.7235 26 14 26H15C15.2765 26 15.5 25.776 15.5 25.5C15.5 25.224 15.2765 25 15 25Z" fill="#0F82D6"/>
<path d="M17.5 25H17C16.7235 25 16.5 25.224 16.5 25.5C16.5 25.776 16.7235 26 17 26H17.5C17.7765 26 18 25.776 18 25.5C18 25.224 17.7765 25 17.5 25Z" fill="#0F82D6"/>
<path d="M20.5 25H19.5C19.2235 25 19 25.224 19 25.5C19 25.776 19.2235 26 19.5 26H20.5C20.7765 26 21 25.776 21 25.5C21 25.224 20.7765 25 20.5 25Z" fill="#0F82D6"/>
<path d="M22.145 25.1446C22.0545 25.2396 22 25.3696 22 25.4996C22 25.6296 22.0545 25.7596 22.145 25.8546C22.2395 25.9446 22.37 25.9996 22.5 25.9996C22.63 25.9996 22.76 25.9446 22.855 25.8546C22.945 25.7596 23 25.6296 23 25.4996C23 25.3696 22.945 25.2396 22.855 25.1446C22.665 24.9596 22.3245 24.9596 22.145 25.1446Z" fill="#0F82D6"/>
<path d="M32 20.5C31.362 20.5 30.7655 20.6745 30.25 20.9735C29.7345 20.6745 29.138 20.5 28.5 20.5C26.5705 20.5 25 22.07 25 24C25 25.93 26.5705 27.5 28.5 27.5C29.138 27.5 29.7345 27.3255 30.25 27.0265C30.7655 27.3255 31.362 27.5 32 27.5C33.9295 27.5 35.5 25.93 35.5 24C35.5 22.07 33.9295 20.5 32 20.5ZM31 24C31 24.697 30.712 25.327 30.25 25.781C29.788 25.327 29.5 24.697 29.5 24C29.5 23.303 29.788 22.673 30.25 22.219C30.712 22.673 31 23.303 31 24ZM26 24C26 22.6215 27.1215 21.5 28.5 21.5C28.8155 21.5 29.115 21.565 29.3935 21.6725C28.84 22.2915 28.5 23.106 28.5 24C28.5 24.894 28.84 25.7085 29.3935 26.3275C29.115 26.435 28.8155 26.5 28.5 26.5C27.1215 26.5 26 25.3785 26 24ZM32 26.5C31.6845 26.5 31.385 26.435 31.1065 26.3275C31.66 25.7085 32 24.894 32 24C32 23.106 31.66 22.2915 31.1065 21.6725C31.385 21.565 31.6845 21.5 32 21.5C33.3785 21.5 34.5 22.6215 34.5 24C34.5 25.3785 33.3785 26.5 32 26.5Z" fill="#0F82D6"/>
<path d="M12.1275 19H15.1275H15.8725H18.8725C19.494 19 20 18.494 20 17.8725V13.8725V13.1275C20 12.506 19.494 12 18.8725 12H15.1275H12.1275C11.506 12 11 12.506 11 13.1275V17.8725C11 18.494 11.506 19 12.1275 19ZM14 16H12V15H14V16ZM12 17.8725V17H14V17.8725C14 17.916 14.008 17.9575 14.013 18H12.1275C12.057 18 12 17.943 12 17.8725ZM19 16H17V15.1275C17 15.057 17.057 15 17.1275 15H18.8725C18.916 15 18.9575 14.992 19 14.987V16ZM18.8725 18H16.987C16.992 17.9575 17 17.916 17 17.8725V17H19V17.8725C19 17.943 18.943 18 18.8725 18ZM18.8725 13C18.943 13 19 13.057 19 13.1275V13.8725C19 13.943 18.943 14 18.8725 14H17.1275C16.506 14 16 14.506 16 15.1275V17.8725C16 17.943 15.943 18 15.8725 18H15.1275C15.057 18 15 17.943 15 17.8725V13.1275C15 13.057 15.057 13 15.1275 13H18.8725ZM12.1275 13H14.013C14.008 13.0425 14 13.084 14 13.1275V14H12V13.1275C12 13.057 12.057 13 12.1275 13Z" fill="#0F82D6"/>
</svg>
