<svg width="66" height="56" viewBox="0 0 66 56" fill="none" xmlns="http://www.w3.org/2000/svg">
<rect x="0.199219" width="65.1953" height="55.6545" rx="3.47841" fill="white"/>
<path d="M54.0652 6.95682H11.5291C9.11497 6.95682 7.15625 8.91554 7.15625 11.3297V44.3247C7.15625 46.739 9.11497 48.6977 11.5291 48.6977H53.6675C56.0817 48.6977 58.4379 46.739 58.4379 44.3247V11.3297C58.4379 8.91554 56.4792 6.95682 54.0652 6.95682Z" fill="#F9F9F9"/>
<path d="M53.8793 24.5302C54.9816 24.3025 55.5828 23.5645 55.5828 22.4167C55.5828 19.8203 52.8225 20.1938 50.7638 20.1938L50.7637 27.6641H52.2214V24.676H52.4219L54.4443 27.6641H56.2299L53.8793 24.5302ZM52.6493 23.6557H52.2213V21.3873H52.6675C53.5876 21.3873 54.0888 21.7698 54.0888 22.4897C54.0888 23.2548 53.5876 23.6557 52.6493 23.6557Z" fill="black"/>
<path d="M45.6699 20.2029H49.797V21.4783H47.1279V23.1365H49.7058V24.3935H47.1279V26.416H49.797V27.6731H45.6699V20.2029Z" fill="black"/>
<path d="M39.4126 20.2029L41.4077 25.2316L43.4302 20.2029H45.0245L41.7904 27.8736H41.007L37.8184 20.2029H39.4126Z" fill="black"/>
<path d="M34.3189 19.9297C36.5691 19.9297 38.3821 21.7516 38.3821 23.9928C38.3821 26.243 36.5599 28.056 34.3189 28.056C32.0687 28.056 30.2559 26.2338 30.2559 23.9928C30.2557 21.7426 32.078 19.9297 34.3189 19.9297Z" fill="#FF6F00"/>
<path d="M29.8272 20.4852V22.2161C27.9962 20.385 25.5638 21.7881 25.5638 23.9471C25.5638 26.2247 28.069 27.4546 29.8272 25.6963V27.4272C27.1216 28.7299 24.0605 26.9079 24.0605 23.9471C24.0605 21.1046 27.076 19.1187 29.8272 20.4852Z" fill="black"/>
<path d="M20.974 26.5253C22.0125 26.5253 23.0147 25.1315 20.6734 24.3025C19.307 23.8014 18.8332 23.264 18.8332 22.2346C18.8332 20.1209 21.6208 19.374 23.3609 20.932L22.5956 21.9157C21.6482 20.859 20.3271 21.3509 20.3271 22.1437C20.3271 22.5444 20.5732 22.7721 21.4477 23.0818C23.1058 23.6831 23.5977 24.2207 23.5977 25.4139C23.5977 28.1015 20.063 28.8213 18.4414 26.4434L19.3799 25.5415C19.7168 26.1883 20.2816 26.5253 20.974 26.5253Z" fill="black"/>
<path d="M17.8757 20.2029H16.418V27.6731H17.8757V20.2029Z" fill="black"/>
<path d="M58.4355 44.3248V32.2376C54.8999 34.4457 34.4198 44.9206 14.3105 48.6964H53.7205C56.1153 48.6667 58.4355 46.7206 58.4355 44.3248Z" fill="#FF6F00"/>
<path d="M11.7276 20.2029H9.5957V27.6731H11.7275C14.5425 27.6731 15.745 25.6326 15.745 23.9472C15.7451 21.7516 14.1053 20.2029 11.7276 20.2029ZM13.431 25.8329C12.9846 26.2338 12.3742 26.416 11.4359 26.416H11.0532V21.4783H11.4359C12.3742 21.4783 12.9573 21.6332 13.431 22.0795C13.9502 22.5352 14.2418 23.2273 14.2418 23.9471C14.2419 24.6668 13.9502 25.3591 13.431 25.8329Z" fill="black"/>
</svg>
