<svg width="32" height="32" viewBox="0 0 32 32" fill="none" xmlns="http://www.w3.org/2000/svg">
<path d="M7.38665 26.0274C6.57331 26.0274 5.81332 25.7474 5.26665 25.2274C4.57332 24.5741 4.23998 23.5874 4.35998 22.5207L4.85332 18.2007C4.94665 17.3874 5.43998 16.3074 6.01332 15.7207L16.96 4.13405C19.6933 1.24072 22.5466 1.16072 25.44 3.89405C28.3333 6.62738 28.4133 9.48072 25.68 12.3741L14.7333 23.9607C14.1733 24.5607 13.1333 25.1207 12.32 25.2541L8.02665 25.9874C7.79998 26.0007 7.59998 26.0274 7.38665 26.0274ZM21.24 3.88072C20.2133 3.88072 19.32 4.52072 18.4133 5.48072L7.46665 17.0807C7.19998 17.3607 6.89332 18.0274 6.83998 18.4141L6.34665 22.7341C6.29332 23.174 6.39998 23.534 6.63998 23.7607C6.87998 23.9874 7.23998 24.0674 7.67998 24.0007L11.9733 23.2674C12.36 23.2007 13 22.8541 13.2666 22.5741L24.2133 10.9874C25.8666 9.22738 26.4666 7.60072 24.0533 5.33405C22.9866 4.30738 22.0666 3.88072 21.24 3.88072Z" fill="#333333"/>
<path d="M23.1199 14.5985C23.0933 14.5985 23.0533 14.5985 23.0266 14.5985C18.8666 14.1852 15.5199 11.0252 14.8799 6.89183C14.7999 6.34516 15.1733 5.8385 15.7199 5.74516C16.2666 5.66516 16.7733 6.0385 16.8666 6.58516C17.3733 9.81183 19.9866 12.2918 23.2399 12.6118C23.7866 12.6652 24.1866 13.1585 24.1333 13.7052C24.0666 14.2118 23.6266 14.5985 23.1199 14.5985Z" fill="#333333"/>
<path d="M28 30.332H4C3.45333 30.332 3 29.8787 3 29.332C3 28.7854 3.45333 28.332 4 28.332H28C28.5467 28.332 29 28.7854 29 29.332C29 29.8787 28.5467 30.332 28 30.332Z" fill="#333333"/>
</svg>
