<svg width="80" height="55" viewBox="0 0 80 55" fill="none" xmlns="http://www.w3.org/2000/svg">
<rect x="0.394531" width="79.2246" height="54.6377" rx="3.41485" fill="white"/>
<g clip-path="url(#clip0_652_37075)">
<path fill-rule="evenodd" clip-rule="evenodd" d="M67.8705 6.83008C64.5922 6.83008 29.8839 6.83008 10.5009 6.83008C8.86179 6.83008 7.22266 8.46921 7.22266 10.1083V42.8909C7.22266 46.1692 8.86179 47.8083 12.14 47.8083C30.4259 47.8083 64.5922 47.8083 67.8705 47.8083C71.1487 47.8083 72.7878 46.1692 72.7878 42.8909V11.7475C72.7878 8.46921 71.1487 6.83008 67.8705 6.83008Z" fill="#306FC5"/>
<path fill-rule="evenodd" clip-rule="evenodd" d="M12.7625 21.8383L11.4926 18.7441L10.2301 21.8383H12.7625ZM40.7366 20.6062C40.4816 20.7609 40.1801 20.7661 39.8189 20.7661H37.5651V19.0421H39.8495C40.1728 19.0421 40.5102 19.0566 40.7293 19.1821C40.97 19.2952 41.1189 19.5358 41.1189 19.8683C41.1189 20.2075 40.9773 20.4805 40.7366 20.6062C40.7366 20.6062 40.9773 20.4805 40.7366 20.6062ZM56.815 21.8383L55.5311 18.7441L54.2542 21.8383H56.815ZM26.8439 25.1875H24.9419L24.9349 19.1086L22.2447 25.1875H20.6158L17.9186 19.1032V25.1875H14.1451L13.4323 23.4563H9.56941L8.84928 25.1875H6.83427L10.1566 17.4258H12.913L16.0684 24.7746V17.4258H19.0964L21.5244 22.6912L23.7548 17.4258H26.8436V25.1875H26.8439ZM34.4242 25.1875H28.2265V17.4258H34.4242V19.0421H30.0819V20.4411H34.32V22.0322H30.0819V23.5822H34.4242V25.1875ZM43.1627 19.5162C43.1627 20.7537 42.3367 21.393 41.8554 21.585C42.2614 21.7395 42.6081 22.0125 42.7731 22.2387C43.0351 22.6247 43.0803 22.9696 43.0803 23.6628V25.1875H41.209L41.202 24.2087C41.202 23.7417 41.2467 23.07 40.9091 22.6966C40.638 22.4236 40.2248 22.3644 39.5569 22.3644H37.5653V25.1875H35.7102V17.4258H39.9774C40.9255 17.4258 41.6241 17.4508 42.2239 17.7975C42.8108 18.1443 43.1627 18.6504 43.1627 19.5162C43.1627 19.5162 43.1627 18.6504 43.1627 19.5162ZM46.1317 25.1875H44.2387V17.4258H46.1317V25.1875ZM68.0933 25.1875H65.4643L61.9477 19.3619V25.1875H58.1693L57.4473 23.4563H53.5933L52.8929 25.1875H50.722C49.8202 25.1875 48.6784 24.9881 48.0318 24.3291C47.3798 23.67 47.0405 22.7774 47.0405 21.3659C47.0405 20.2148 47.2433 19.1624 48.0407 18.3309C48.6405 17.7114 49.5797 17.4258 50.8582 17.4258H52.6543V19.0889H50.8959C50.2188 19.0889 49.8365 19.1896 49.4683 19.5487C49.152 19.8755 48.935 20.4934 48.935 21.3069C48.935 22.1385 49.1003 22.738 49.4451 23.1297C49.7307 23.4368 50.2498 23.53 50.7381 23.53H51.5713L54.1861 17.426H56.966L60.1071 24.7675V17.426H62.9319L66.1931 22.8317V17.426H68.0933V25.1875ZM6.81273 26.7121H9.98262L10.6974 24.9881H12.2975L13.0104 26.7121H19.2474V25.394L19.8041 26.7177H23.0419L23.5986 25.3744V26.7121H39.0987L39.0915 23.8821H39.3914C39.6014 23.8894 39.6627 23.9088 39.6627 24.2555V26.7121H47.6794V26.0533C48.326 26.3998 49.3318 26.7121 50.6552 26.7121H54.0279L54.7496 24.9881H56.3498L57.0556 26.7121H63.5548V25.0745L64.539 26.7121H69.7471V15.8867H64.5929V17.1652L63.8711 15.8867H58.5823V17.1652L57.9195 15.8867H50.7756C49.5797 15.8867 48.5286 16.0536 47.6794 16.5188V15.8867H42.7495V16.5188C42.2092 16.0394 41.4729 15.8867 40.6542 15.8867H22.6432L21.4347 18.6827L20.1937 15.8867H14.5207V17.1652L13.8974 15.8867H9.05928L6.8125 21.0337V26.7121H6.81273ZM72.8037 32.4277H69.4224C69.0848 32.4277 68.8605 32.4403 68.6716 32.5679C68.4759 32.6937 68.4005 32.8802 68.4005 33.1265C68.4005 33.4194 68.5658 33.6186 68.8062 33.7048C69.0019 33.7729 69.2122 33.7928 69.5212 33.7928L70.5267 33.8197C71.5414 33.8448 72.2186 34.0192 72.6316 34.4446C72.7068 34.5038 72.752 34.5703 72.8037 34.6368V32.4277ZM72.8037 37.5461C72.353 38.2051 71.4749 38.5392 70.286 38.5392H66.7032V36.8744H70.2715C70.6255 36.8744 70.8732 36.8279 71.0223 36.6822C71.1516 36.5621 71.2417 36.3877 71.2417 36.1758C71.2417 35.9497 71.1516 35.7701 71.0151 35.6624C70.8805 35.544 70.6845 35.4901 70.3614 35.4901C68.6194 35.4309 66.4461 35.544 66.4461 33.0872C66.4461 31.9611 67.1611 30.7758 69.108 30.7758H72.8035V29.2311H69.37C68.3338 29.2311 67.5811 29.4793 67.048 29.8651V29.2311H61.9694C61.1573 29.2311 60.204 29.4325 59.7531 29.8651V29.2311H50.684V29.8651C49.9623 29.3444 48.7444 29.2311 48.1823 29.2311H42.2003V29.8651C41.6293 29.3121 40.3594 29.2311 39.5855 29.2311H32.8905L31.3585 30.8891L29.9236 29.2311H19.9228V40.064H29.7354L31.314 38.3798L32.8011 40.064L38.8496 40.0694V37.5211H39.4443C40.2468 37.5335 41.1933 37.5012 42.0284 37.1402V40.0638H47.0174V37.2404H47.258C47.5652 37.2404 47.5954 37.253 47.5954 37.5599V40.0635H62.7509C63.7131 40.0635 64.7188 39.8172 65.2758 39.3703V40.0635H70.0831C71.0834 40.0635 72.0604 39.9233 72.8037 39.5642V37.5461ZM65.4032 34.4446C65.7644 34.8185 65.958 35.2904 65.958 36.0895C65.958 37.7596 64.9146 38.5392 63.0435 38.5392H59.43V36.8744H63.029C63.3809 36.8744 63.6305 36.8279 63.7868 36.6822C63.9144 36.5621 64.006 36.3877 64.006 36.1758C64.006 35.9497 63.9069 35.7701 63.7796 35.6624C63.6377 35.544 63.442 35.4901 63.1189 35.4901C61.3839 35.4309 59.2111 35.544 59.2111 33.0872C59.2111 31.9611 59.9186 30.7758 61.8636 30.7758H65.583V32.4282H62.1797C61.8423 32.4282 61.6229 32.4408 61.4364 32.5684C61.2331 32.6941 61.1578 32.8807 61.1578 33.127C61.1578 33.4199 61.3303 33.6191 61.5637 33.7053C61.7594 33.7734 61.9697 33.7933 62.2857 33.7933L63.2844 33.8202C64.2916 33.8448 64.9829 34.019 65.4032 34.4446C65.4032 34.4446 64.9829 34.019 65.4032 34.4446ZM48.6622 33.9651C48.4141 34.1124 48.1072 34.125 47.7462 34.125H45.4923V32.3814H47.7768C48.1072 32.3814 48.4377 32.3884 48.6622 32.5216C48.9027 32.6473 49.0464 32.8877 49.0464 33.2199C49.0464 33.5522 48.9027 33.8197 48.6622 33.9651C48.6622 33.9651 48.9027 33.8197 48.6622 33.9651ZM49.7827 34.9313C50.1957 35.0837 50.5333 35.3569 50.6915 35.5831C50.9535 35.9621 50.9914 36.3158 50.9989 37.0002V38.5392H49.1363V37.5679C49.1363 37.1008 49.1813 36.4093 48.8364 36.0483C48.5653 35.7701 48.1521 35.7036 47.4753 35.7036H45.4926V38.5392H43.6283V30.7756H47.9117C48.8509 30.7756 49.535 30.817 50.1439 31.142C50.7294 31.4957 51.0977 31.9803 51.0977 32.866C51.0975 34.1051 50.2711 34.7375 49.7827 34.9313C49.7827 34.9313 50.2711 34.7375 49.7827 34.9313ZM52.1264 30.7756H58.3184V32.3811H53.974V33.7926H58.2124V35.3766H53.974V36.9213L58.3184 36.9283V38.5392H52.1264V30.7756ZM39.6091 34.3584H37.2116V32.3814H39.6306C40.3004 32.3814 40.7654 32.6543 40.7654 33.3333C40.7654 34.0047 40.322 34.3584 39.6091 34.3584ZM35.3637 37.8331L32.5153 34.6707L35.3637 31.6088V37.8331ZM28.0076 36.9213H23.4462V35.3766H27.5193V33.7926H23.4462V32.3811H28.0975L30.1268 34.6436L28.0076 36.9213ZM42.7572 33.3333C42.7572 35.4899 41.1482 35.9352 39.5265 35.9352H37.2116V38.5392H33.6055L31.321 35.9691L28.9469 38.5392H21.5981V30.7756H29.06L31.3426 33.3204L33.7024 30.7756H39.6306C41.103 30.7756 42.7572 31.1832 42.7572 33.3333C42.7572 33.3333 42.7572 31.1832 42.7572 33.3333Z" fill="white"/>
</g>
<defs>
<clipPath id="clip0_652_37075">
<rect width="65.5652" height="40.9782" fill="white" transform="translate(7.22461 6.83008)"/>
</clipPath>
</defs>
</svg>
