<svg width="32" height="32" viewBox="0 0 32 32" fill="none" xmlns="http://www.w3.org/2000/svg">
<path d="M6.06689 15.3022H27.4163C27.4991 15.3022 27.5786 15.2693 27.6372 15.2107C27.6958 15.1521 27.7288 15.0726 27.7288 14.9897V2.94531C27.7288 2.86243 27.6958 2.78295 27.6372 2.72434C27.5786 2.66574 27.4991 2.63281 27.4163 2.63281H6.06689C5.98401 2.63281 5.90453 2.66574 5.84592 2.72434C5.78732 2.78295 5.75439 2.86243 5.75439 2.94531V14.9897C5.75439 15.0726 5.78732 15.1521 5.84592 15.2107C5.90453 15.2693 5.98401 15.3022 6.06689 15.3022ZM23.2144 3.25781C23.5269 3.93219 24.6888 6.04469 27.1038 6.21469V11.7203C24.6875 11.8909 23.5256 14.0009 23.2144 14.6772H10.2688C9.95627 14.0034 8.79439 11.8909 6.37939 11.7203V6.21469C8.79439 6.04469 9.95752 3.93219 10.2688 3.25781H23.2144ZM6.37939 12.3472C8.21689 12.4966 9.19564 13.9428 9.57752 14.6772H6.37939V12.3472ZM23.9094 14.6772C24.2975 13.9453 25.2844 12.4991 27.1038 12.3478V14.6772H23.9094ZM27.1038 5.58844C25.2663 5.43844 24.2875 3.99281 23.9056 3.25781H27.1038V5.58844ZM9.57377 3.25781C9.18752 3.99031 8.19627 5.43844 6.37939 5.58781V3.25781H9.57377Z" fill="#333333"/>
<path d="M29.8937 20.8486C29.6758 20.3988 29.3107 20.0369 28.859 19.823C28.4073 19.6091 27.8961 19.5559 27.41 19.6723L21.0562 21.1648C20.9899 21.1205 20.9206 21.0809 20.8487 21.0461L16.025 18.7092C14.0967 17.7774 11.9063 17.5384 9.82248 18.0323L6.88998 18.7305H4.68748V15.9805C4.68748 15.8976 4.65456 15.8181 4.59595 15.7595C4.53735 15.7009 4.45786 15.668 4.37498 15.668H2.26123C2.17835 15.668 2.09886 15.7009 2.04026 15.7595C1.98165 15.8181 1.94873 15.8976 1.94873 15.9805C1.94873 16.0633 1.98165 16.1428 2.04026 16.2014C2.09886 16.26 2.17835 16.293 2.26123 16.293H4.06248V28.7436H2.26123C2.17835 28.7436 2.09886 28.7765 2.04026 28.8351C1.98165 28.8937 1.94873 28.9732 1.94873 29.0561C1.94873 29.139 1.98165 29.2185 2.04026 29.2771C2.09886 29.3357 2.17835 29.3686 2.26123 29.3686H4.37498C4.45786 29.3686 4.53735 29.3357 4.59595 29.2771C4.65456 29.2185 4.68748 29.139 4.68748 29.0561V25.063H8.43748L13.8819 27.188C15.0537 27.6436 16.3073 27.8511 17.5634 27.7973C18.8195 27.7435 20.0508 27.4296 21.1794 26.8755L29.1875 22.9236C29.5553 22.7411 29.8361 22.4204 29.9684 22.0317C30.1007 21.6429 30.0739 21.2176 29.8937 20.8486ZM28.9094 22.363L20.9025 26.3092C19.8521 26.8259 18.7059 27.1187 17.5364 27.1693C16.367 27.2199 15.1998 27.027 14.1087 26.603L8.60873 24.4617C8.57416 24.4475 8.53734 24.4394 8.49998 24.438H4.68748V19.3555H6.92373C6.94813 19.3556 6.97246 19.3529 6.99623 19.3473L9.96498 18.6405C11.9085 18.1796 13.9516 18.4025 15.75 19.2717L20.5737 21.6086C20.808 21.7225 20.9953 21.9144 21.1033 22.1515C21.2114 22.3885 21.2334 22.6558 21.1656 22.9073C21.0985 23.1508 20.946 23.362 20.736 23.5022C20.5259 23.6424 20.2724 23.7024 20.0219 23.6711L12.8412 22.7467C12.8005 22.7415 12.7592 22.7444 12.7196 22.7551C12.68 22.7659 12.6429 22.7843 12.6104 22.8095C12.5779 22.8346 12.5507 22.8658 12.5303 22.9014C12.5099 22.937 12.4968 22.9763 12.4915 23.017C12.4863 23.0577 12.4892 23.0991 12.5 23.1387C12.5107 23.1783 12.5292 23.2154 12.5543 23.2479C12.5794 23.2803 12.6106 23.3075 12.6462 23.3279C12.6819 23.3483 12.7211 23.3615 12.7619 23.3667L19.9444 24.2911C20.0146 24.3003 20.0854 24.3049 20.1562 24.3048C20.5233 24.3039 20.8799 24.1828 21.1715 23.96C21.4632 23.7372 21.6738 23.425 21.7712 23.0711C21.8336 22.8386 21.8473 22.5957 21.8114 22.3577C21.7755 22.1197 21.6907 21.8917 21.5625 21.688L27.5512 20.2817C27.8999 20.1978 28.2667 20.2357 28.5908 20.3892C28.9148 20.5428 29.1766 20.8026 29.3325 21.1255C29.4394 21.3459 29.4549 21.5995 29.3757 21.8313C29.2964 22.0631 29.1288 22.2542 28.9094 22.363Z" fill="#333333"/>
<path d="M17.448 13.088C18.048 13.088 18.564 12.956 18.996 12.692C19.436 12.428 19.772 12.052 20.004 11.564H21.3C20.996 12.364 20.504 12.984 19.824 13.424C19.144 13.856 18.352 14.072 17.448 14.072C16.504 14.072 15.672 13.812 14.952 13.292C14.232 12.772 13.736 12.076 13.464 11.204H12.3V10.436H13.296C13.272 10.228 13.26 10.02 13.26 9.812C13.26 9.612 13.272 9.416 13.296 9.224H12.3V8.468H13.452C13.628 7.884 13.908 7.372 14.292 6.932C14.684 6.484 15.148 6.14 15.684 5.9C16.228 5.652 16.816 5.528 17.448 5.528C18.352 5.528 19.144 5.748 19.824 6.188C20.504 6.628 20.996 7.252 21.3 8.06H20.004C19.772 7.564 19.44 7.184 19.008 6.92C18.576 6.656 18.056 6.524 17.448 6.524C16.776 6.524 16.188 6.696 15.684 7.04C15.188 7.384 14.832 7.86 14.616 8.468H17.448V9.224H14.424C14.4 9.416 14.388 9.612 14.388 9.812C14.388 10.044 14.404 10.252 14.436 10.436H17.448V11.204H14.628C14.86 11.796 15.224 12.26 15.72 12.596C16.224 12.924 16.8 13.088 17.448 13.088Z" fill="#333333"/>
</svg>
