<svg width="24" height="16" viewBox="0 0 24 16" fill="none" xmlns="http://www.w3.org/2000/svg">
<path fill-rule="evenodd" clip-rule="evenodd" d="M22.9313 0H1.02656C0.6 0 0.332812 0.0656251 0.1875 0.201563C0.0609375 0.35625 0 0.609375 0 0.984375V2.38594V3.51562V11.5922V12.7734V14.1234C0 14.7937 0.346875 15.1406 1.02656 15.1406H22.9313C23.6438 15.1406 24 14.7937 24 14.1234V12.7734V11.5922V3.51094V2.38125V0.979688C24 0.31875 23.6438 0 22.9313 0Z" fill="#CCCCCC"/>
<path fill-rule="evenodd" clip-rule="evenodd" d="M12 11.5547C12.9469 12.4219 14.2078 12.9469 15.5859 12.9469C18.5391 12.9469 20.9297 10.5375 20.9297 7.57032C20.9297 4.59844 18.5344 2.19376 15.5859 2.19376C14.2031 2.19376 12.9469 2.71876 12 3.58594C10.9219 4.57032 10.2422 5.99063 10.2422 7.57032C10.2422 9.15001 10.9219 10.575 12 11.5547Z" fill="#FCB131"/>
<path fill-rule="evenodd" clip-rule="evenodd" d="M20.2188 10.5703C20.2188 10.4719 20.2984 10.3969 20.3922 10.3969C20.4859 10.3969 20.5656 10.4766 20.5656 10.5703C20.5656 10.6641 20.4906 10.7438 20.3922 10.7438C20.2938 10.7438 20.2188 10.6641 20.2188 10.5703ZM20.3922 10.7016C20.4672 10.7016 20.5234 10.6406 20.5234 10.5703C20.5234 10.4953 20.4625 10.4391 20.3922 10.4391C20.3219 10.4391 20.2609 10.5 20.2609 10.5703C20.2609 10.6406 20.3172 10.7016 20.3922 10.7016ZM20.3687 10.6453H20.3312V10.4906H20.3969C20.4109 10.4906 20.425 10.4906 20.4344 10.5C20.4484 10.5094 20.4531 10.5234 20.4531 10.5375C20.4531 10.5563 20.4437 10.5703 20.425 10.575L20.4531 10.6406H20.4156L20.3922 10.5797H20.3641V10.6453V10.5609H20.3828C20.3922 10.5609 20.3969 10.5609 20.4062 10.5563C20.4109 10.5516 20.4156 10.5469 20.4156 10.5375C20.4156 10.5328 20.4109 10.5234 20.4062 10.5234C20.4016 10.5188 20.3922 10.5188 20.3828 10.5188H20.3641V10.5563V10.6453H20.3687Z" fill="#FCB131"/>
<path fill-rule="evenodd" clip-rule="evenodd" d="M13.7281 6.99844C13.7094 6.80625 13.6765 6.61407 13.639 6.43125H10.3672C10.4094 6.23907 10.4609 6.04688 10.5219 5.86407H13.4844C13.4187 5.66719 13.3437 5.47969 13.2594 5.29219H10.7516C10.8453 5.09532 10.9484 4.90782 11.0609 4.725H12.9547C12.8328 4.52813 12.6969 4.33594 12.5469 4.15782H11.4687C11.6328 3.95625 11.8156 3.76407 12.0078 3.59063C11.0609 2.72344 9.79999 2.19844 8.42187 2.19844C5.46875 2.19844 3.07812 4.60782 3.07812 7.575C3.07812 10.5469 5.47343 12.9516 8.42187 12.9516C9.80468 12.9516 11.0609 12.4266 12.0078 11.5594C12.2 11.3813 12.3828 11.1938 12.5469 10.9922H11.4687C11.3234 10.8141 11.1875 10.6219 11.0609 10.425H12.9547C13.0672 10.2422 13.1703 10.05 13.264 9.85782H10.7562C10.6719 9.675 10.5922 9.48282 10.5266 9.29063H13.489C13.55 9.10313 13.6015 8.91563 13.6437 8.72344C13.6859 8.53594 13.714 8.34844 13.7328 8.15157C13.7515 7.96407 13.7609 7.77657 13.7609 7.58438C13.7562 7.37813 13.7469 7.18594 13.7281 6.99844Z" fill="#700E15"/>
<path fill-rule="evenodd" clip-rule="evenodd" d="M20.2188 8.81719C20.2188 8.72344 20.2984 8.64375 20.3922 8.64375C20.4859 8.64375 20.5656 8.72344 20.5656 8.81719C20.5656 8.91094 20.4906 8.99063 20.3922 8.99063C20.2938 8.99063 20.2188 8.91563 20.2188 8.81719ZM20.3922 8.94844C20.4672 8.94844 20.5234 8.8875 20.5234 8.81719C20.5234 8.74219 20.4625 8.68594 20.3922 8.68594C20.3219 8.68594 20.2609 8.74688 20.2609 8.81719C20.2609 8.89219 20.3172 8.94844 20.3922 8.94844ZM20.3687 8.89219H20.3312V8.74219H20.3969C20.4109 8.74219 20.425 8.74219 20.4344 8.75157C20.4484 8.76094 20.4531 8.775 20.4531 8.78907C20.4531 8.80782 20.4437 8.82188 20.425 8.82657L20.4531 8.89219H20.4156L20.3922 8.83125H20.3641V8.89219V8.80782H20.3828C20.3922 8.80782 20.3969 8.80782 20.4062 8.80313C20.4109 8.79844 20.4156 8.79375 20.4156 8.78438C20.4156 8.77969 20.4109 8.77032 20.4062 8.77032C20.4016 8.76563 20.3922 8.76563 20.3828 8.76563H20.3641V8.80313V8.89219H20.3687Z" fill="white"/>
<path fill-rule="evenodd" clip-rule="evenodd" d="M10.1812 9.12188C10.0031 9.17344 9.87656 9.19219 9.74531 9.19219C9.47344 9.19219 9.30469 9.01875 9.30469 8.70469C9.30469 8.64375 9.30937 8.57813 9.32344 8.50782L9.35625 8.29219L9.38437 8.11875L9.6375 6.60469H10.1953L10.1297 6.93282H10.4766L10.3922 7.49063H10.0406L9.89062 8.39532C9.88594 8.4375 9.88125 8.46563 9.88125 8.48907C9.88125 8.60157 9.94219 8.65313 10.0781 8.65313C10.1438 8.65313 10.1953 8.64844 10.2563 8.63438L10.1812 9.12188Z" fill="#003473"/>
<path fill-rule="evenodd" clip-rule="evenodd" d="M11.9742 9.10313C11.7774 9.16407 11.5852 9.1922 11.3789 9.1922C10.7602 9.1922 10.3945 8.85001 10.3945 8.19845C10.3945 7.43907 10.8258 6.87657 11.407 6.87657C11.8852 6.87657 12.1899 7.19063 12.1899 7.68282C12.1899 7.84688 12.1711 8.00626 12.1195 8.23126H10.9664C10.9617 8.26407 10.9617 8.28282 10.9617 8.30157C10.9617 8.55938 11.1352 8.69063 11.4727 8.69063C11.6789 8.69063 11.8664 8.64845 12.0774 8.55001L11.9742 9.10313ZM11.6274 7.78126C11.632 7.73438 11.632 7.69688 11.632 7.66876C11.632 7.49063 11.5289 7.38282 11.3555 7.38282C11.1727 7.38282 11.0367 7.52345 10.9852 7.78126H11.6274Z" fill="#003473"/>
<path fill-rule="evenodd" clip-rule="evenodd" d="M5.75469 9.15H5.17344L5.50625 7.05469L4.76094 9.15H4.36719L4.32031 7.06406L3.96875 9.15H3.40625L3.86094 6.42188H4.69531L4.71875 8.11406L5.28125 6.42188H6.2L5.75469 9.15Z" fill="#003473"/>
<path fill-rule="evenodd" clip-rule="evenodd" d="M7.1461 8.16094C7.08516 8.15157 7.07578 8.15157 7.0336 8.15157C6.70547 8.15157 6.53672 8.27813 6.53672 8.48907C6.53672 8.62501 6.61641 8.71407 6.74297 8.71407C7.02422 8.71876 7.13672 8.48907 7.1461 8.16094ZM7.60547 9.15001H7.10391L7.11328 8.92032C6.98672 9.09376 6.81328 9.18751 6.50391 9.18751C6.22266 9.18751 5.98828 8.93907 5.98828 8.58282C5.98828 8.47501 6.00703 8.38126 6.03047 8.29219C6.12422 7.95001 6.46641 7.73438 6.99141 7.72501C7.05703 7.72501 7.16016 7.72501 7.24453 7.73438C7.26328 7.65938 7.26797 7.63126 7.26797 7.58907C7.26797 7.44376 7.1461 7.39688 6.87891 7.39688C6.71485 7.39688 6.52735 7.42501 6.40078 7.46251L6.32109 7.48594L6.28828 7.49532L6.36797 6.99844C6.63985 6.91407 6.82735 6.88126 7.04297 6.88126C7.53985 6.88126 7.80704 7.10626 7.80704 7.53282C7.80704 7.64063 7.81641 7.72501 7.77891 7.97344L7.65704 8.76094L7.63829 8.90157L7.62422 9.01407L7.61485 9.08907L7.60547 9.15001Z" fill="#003473"/>
<path fill-rule="evenodd" clip-rule="evenodd" d="M14.7656 6.95157C14.925 6.95157 15.075 6.99376 15.2859 7.09688L15.3797 6.50626C15.3281 6.48282 15.3141 6.47813 15.2391 6.45469L15 6.39376C14.925 6.37501 14.8406 6.36563 14.7422 6.36563C14.4563 6.36563 14.2875 6.37032 14.1094 6.47813C14.0156 6.53438 13.8984 6.61876 13.7625 6.76876L13.6922 6.74532L13.1016 7.16719L13.1297 6.92813H12.5156L12.1641 9.14532H12.7453L12.9562 7.95001C12.9562 7.95001 13.0406 7.78594 13.0781 7.73438C13.1859 7.58907 13.2797 7.58907 13.4016 7.59376C13.4156 7.59376 13.4344 7.59376 13.4437 7.59376C13.425 7.72501 13.4156 7.86563 13.4156 8.01563C13.4156 8.74219 13.8234 9.19219 14.4516 9.19219C14.6109 9.19219 14.7516 9.16876 14.9625 9.11251L15.0656 8.48907C14.8734 8.58282 14.7141 8.62969 14.5734 8.62969C14.2359 8.62969 14.0344 8.38126 14.0344 7.96407C14.0297 7.37344 14.3344 6.95157 14.7656 6.95157Z" fill="#003473"/>
<path fill-rule="evenodd" clip-rule="evenodd" d="M19.6688 6.42188L19.5422 7.2C19.4016 6.98907 19.2375 6.89063 19.0125 6.89063C18.7078 6.89063 18.4266 7.06407 18.2531 7.39219V7.3875L17.8828 7.16719L17.9109 6.92813H17.2969L16.9453 9.14532H17.5266L17.7188 7.95C17.7188 7.95 17.8688 7.78594 17.9063 7.73438C17.9906 7.62188 18.0844 7.59844 18.1641 7.59375C18.0984 7.78125 18.0563 8.00157 18.0563 8.25469C18.0563 8.80782 18.3422 9.17813 18.7641 9.17813C18.975 9.17813 19.1391 9.10313 19.2984 8.92969L19.2703 9.14532H19.8188L20.2594 6.41719H19.6688V6.42188ZM18.9609 8.62969C18.7641 8.62969 18.6609 8.48438 18.6609 8.19375C18.6609 7.75782 18.8484 7.44844 19.1109 7.44844C19.3125 7.44844 19.4203 7.60313 19.4203 7.88438C19.4203 8.32032 19.2328 8.62969 18.9609 8.62969Z" fill="#003473"/>
<path fill-rule="evenodd" clip-rule="evenodd" d="M16.2859 8.16094C16.225 8.15157 16.2156 8.15157 16.1734 8.15157C15.8453 8.15157 15.6766 8.27813 15.6766 8.48907C15.6766 8.62501 15.7563 8.71407 15.8828 8.71407C16.1641 8.71876 16.2766 8.48907 16.2859 8.16094ZM16.7453 9.15001H16.2438L16.2531 8.92032C16.1266 9.09376 15.9531 9.18751 15.6438 9.18751C15.3625 9.18751 15.1094 8.94376 15.1094 8.57813C15.1141 8.05313 15.5031 7.72501 16.1313 7.72501C16.1969 7.72501 16.3 7.72501 16.3891 7.73438C16.4078 7.65938 16.4125 7.63126 16.4125 7.58907C16.4125 7.44376 16.2906 7.39688 16.0234 7.39688C15.8594 7.39688 15.6719 7.42501 15.5453 7.46251L15.4656 7.48594L15.4328 7.49532L15.5125 6.99844C15.7844 6.91407 15.9719 6.88126 16.1875 6.88126C16.6844 6.88126 16.9516 7.10626 16.9516 7.53282C16.9516 7.64063 16.9609 7.72501 16.9234 7.97344L16.8016 8.76094L16.7828 8.90157L16.7688 9.01407L16.7594 9.08907L16.7453 9.15001Z" fill="#003473"/>
<path fill-rule="evenodd" clip-rule="evenodd" d="M8.81406 7.40626C8.92656 7.40626 9.08125 7.41563 9.25 7.43907L9.33438 6.92813C9.16563 6.90469 8.95 6.88126 8.81406 6.88126C8.16719 6.88126 7.95156 7.22813 7.95156 7.64063C7.95156 7.90313 8.07813 8.10469 8.38281 8.25001C8.61719 8.36251 8.65938 8.38126 8.65938 8.48438C8.65938 8.62032 8.5375 8.70001 8.3125 8.70001C8.13906 8.70001 7.97969 8.67188 7.79219 8.61094L7.72656 9.12188L7.74063 9.12657L7.84844 9.15001C7.88125 9.15469 7.93281 9.16407 7.99844 9.17344C8.13438 9.18751 8.25156 9.19219 8.32656 9.19219C8.96875 9.19219 9.23594 8.93907 9.23594 8.45157C9.23594 8.14688 9.09063 7.96876 8.8 7.83282C8.55625 7.72032 8.52813 7.70626 8.52813 7.60313C8.52813 7.49532 8.63594 7.40626 8.81406 7.40626Z" fill="#003473"/>
<path fill-rule="evenodd" clip-rule="evenodd" d="M15.5344 6.33751L15.4406 6.92813C15.2344 6.82501 15.0844 6.78282 14.9203 6.78282C14.4891 6.78282 14.1844 7.20469 14.1844 7.80469C14.1844 8.21719 14.3906 8.47032 14.7281 8.47032C14.8734 8.47032 15.0281 8.42344 15.2203 8.32969L15.1172 8.95313C14.9016 9.00938 14.7656 9.03282 14.6063 9.03282C13.9828 9.03282 13.5938 8.58282 13.5938 7.85626C13.5938 6.88126 14.1328 6.20157 14.9016 6.20157C15 6.20157 15.0891 6.21094 15.1594 6.22969L15.3984 6.29063C15.4687 6.30938 15.4828 6.31407 15.5344 6.33751Z" fill="white"/>
<path fill-rule="evenodd" clip-rule="evenodd" d="M13.6734 6.74063C13.6547 6.73595 13.6359 6.73595 13.6125 6.73595C13.4203 6.73595 13.3125 6.83438 13.1344 7.09688L13.1859 6.75938H12.6609L12.3047 8.97657H12.8906C13.0969 7.62188 13.1531 7.38751 13.4297 7.38751C13.4484 7.38751 13.4484 7.38751 13.4719 7.38751C13.5234 7.12032 13.5938 6.92345 13.6922 6.74532L13.6734 6.74063Z" fill="white"/>
<path fill-rule="evenodd" clip-rule="evenodd" d="M10.3297 8.95313C10.1703 9.00469 10.0484 9.02344 9.9125 9.02344C9.61719 9.02344 9.45312 8.85001 9.45312 8.53594C9.45312 8.47501 9.45781 8.40938 9.47188 8.33907L9.50937 8.12344L9.5375 7.95001L9.79062 6.43594H10.3672L10.3016 6.76407H10.5969L10.5172 7.30313H10.2219L10.0672 8.22657C10.0625 8.26876 10.0578 8.29688 10.0578 8.32032C10.0578 8.43282 10.1188 8.48438 10.2547 8.48438C10.3203 8.48438 10.3719 8.47969 10.4094 8.46563L10.3297 8.95313Z" fill="white"/>
<path fill-rule="evenodd" clip-rule="evenodd" d="M8.09922 7.46251C8.09922 7.74376 8.23516 7.93595 8.53984 8.08126C8.77422 8.19376 8.81172 8.22658 8.81172 8.32501C8.81172 8.46095 8.70859 8.52657 8.47891 8.52657C8.30547 8.52657 8.14609 8.49845 7.95859 8.43751L7.87891 8.94845L7.90703 8.95314L8.01484 8.97657C8.04766 8.98126 8.09922 8.99064 8.16484 8.99532C8.30078 9.00939 8.40859 9.01407 8.48359 9.01407C9.09297 9.01407 9.37891 8.7797 9.37891 8.27345C9.37891 7.96876 9.26172 7.79064 8.97109 7.6547C8.72734 7.5422 8.69922 7.51876 8.69922 7.41564C8.69922 7.29376 8.79766 7.23282 8.98516 7.23282C9.09766 7.23282 9.25234 7.24689 9.40234 7.26564L9.48672 6.75001C9.33672 6.72657 9.10703 6.70782 8.97578 6.70782C8.32422 6.71251 8.09922 7.0547 8.09922 7.46251Z" fill="white"/>
<path fill-rule="evenodd" clip-rule="evenodd" d="M19.9609 8.98125H19.4125L19.4406 8.76563C19.2812 8.93906 19.1172 9.01406 18.9062 9.01406C18.4844 9.01406 18.2031 8.64844 18.2031 8.09063C18.2031 7.35469 18.6344 6.73125 19.1453 6.73125C19.3703 6.73125 19.5437 6.825 19.7031 7.03594L19.8297 6.25781H20.4016L19.9609 8.98125ZM19.1078 8.45625C19.3797 8.45625 19.5672 8.14688 19.5672 7.70625C19.5672 7.425 19.4594 7.27031 19.2578 7.27031C18.9953 7.27031 18.8078 7.57969 18.8078 8.01563C18.8078 8.31094 18.9109 8.45625 19.1078 8.45625Z" fill="white"/>
<path fill-rule="evenodd" clip-rule="evenodd" d="M12.1031 8.92969C11.9063 8.99063 11.7141 9.01875 11.5078 9.01875C10.8609 9.01875 10.5234 8.67656 10.5234 8.025C10.5234 7.26094 10.9547 6.70312 11.5359 6.70312C12.0141 6.70312 12.3187 7.01719 12.3187 7.50938C12.3187 7.67344 12.3 7.83281 12.2484 8.05781H11.0953C11.0906 8.09063 11.0906 8.10938 11.0906 8.12813C11.0906 8.38594 11.2641 8.51719 11.6016 8.51719C11.8078 8.51719 11.9953 8.475 12.2016 8.37656L12.1031 8.92969ZM11.7797 7.6125C11.7844 7.56562 11.7844 7.52813 11.7844 7.5C11.7844 7.32188 11.6812 7.21406 11.5078 7.21406C11.325 7.21406 11.1891 7.35469 11.1375 7.6125H11.7797Z" fill="white"/>
<path fill-rule="evenodd" clip-rule="evenodd" d="M5.89922 8.98126H5.31797L5.65078 6.88125L4.91016 8.98126H4.51172L4.46484 6.89532L4.11328 8.98126H3.57422L4.02422 6.25313H4.85859L4.88203 7.94063L5.44453 6.25313H6.34922L5.89922 8.98126Z" fill="white"/>
<path fill-rule="evenodd" clip-rule="evenodd" d="M7.33125 7.99219C7.27031 7.98751 7.24219 7.98282 7.2 7.98282C6.87188 7.98282 6.70312 8.09532 6.70312 8.32032C6.70312 8.45626 6.78281 8.54532 6.90937 8.54532C7.14844 8.54532 7.32187 8.32032 7.33125 7.99219ZM7.75312 8.98126H7.27031L7.27969 8.75157C7.13438 8.93438 6.9375 9.01876 6.67031 9.01876C6.35625 9.01876 6.14062 8.77032 6.14062 8.41407C6.14062 7.87501 6.51562 7.56094 7.15781 7.56094C7.22344 7.56094 7.30781 7.56563 7.39219 7.57969C7.41094 7.50469 7.41562 7.47657 7.41562 7.43438C7.41562 7.28907 7.3125 7.23282 7.04531 7.23282C6.88125 7.23282 6.69375 7.25626 6.5625 7.29376L6.48281 7.31719L6.43125 7.33126L6.51094 6.83438C6.80156 6.75001 6.98906 6.71719 7.20469 6.71719C7.70156 6.71719 7.96875 6.94219 7.96875 7.36876C7.96875 7.47657 7.95938 7.56094 7.92188 7.80938L7.8 8.59688L7.78125 8.73751L7.76719 8.85001L7.75781 8.92501L7.75312 8.98126Z" fill="white"/>
<path fill-rule="evenodd" clip-rule="evenodd" d="M16.4719 7.99219C16.4109 7.98751 16.3828 7.98282 16.3406 7.98282C16.0125 7.98282 15.8438 8.09532 15.8438 8.32032C15.8438 8.45626 15.9234 8.54532 16.05 8.54532C16.2937 8.54532 16.4625 8.32032 16.4719 7.99219ZM16.8937 8.98126H16.4109L16.4203 8.75157C16.275 8.93438 16.0781 9.01876 15.8109 9.01876C15.4969 9.01876 15.2812 8.77032 15.2812 8.41407C15.2812 7.87501 15.6563 7.56094 16.2984 7.56094C16.3641 7.56094 16.4484 7.56563 16.5328 7.57969C16.5516 7.50469 16.5563 7.47657 16.5563 7.43438C16.5563 7.28907 16.4531 7.23282 16.1859 7.23282C16.0219 7.23282 15.8344 7.25626 15.7031 7.29376L15.6234 7.31719L15.5719 7.33126L15.6516 6.83438C15.9422 6.75001 16.1297 6.71719 16.3453 6.71719C16.8422 6.71719 17.1094 6.94219 17.1094 7.36876C17.1094 7.47657 17.1 7.56094 17.0625 7.80938L16.9406 8.59688L16.9219 8.73751L16.9078 8.85001L16.8984 8.92501L16.8937 8.98126Z" fill="white"/>
<path fill-rule="evenodd" clip-rule="evenodd" d="M18.4492 6.74063C18.4305 6.73595 18.4117 6.73595 18.393 6.73595C18.2008 6.73595 18.093 6.83438 17.9148 7.09688L17.9664 6.75938H17.4414L17.0898 8.97657H17.6711C17.8773 7.62188 17.9336 7.38751 18.2102 7.38751C18.2289 7.38751 18.2289 7.38751 18.2523 7.38751C18.3039 7.12032 18.3742 6.92345 18.4727 6.74532L18.4492 6.74063Z" fill="white"/>
</svg>
