<svg width="32" height="32" viewBox="0 0 32 32" fill="none" xmlns="http://www.w3.org/2000/svg">
<path d="M18.8037 25.1943L18.8013 25.1974L16.8013 27.8508L16.7998 27.8527C16.521 28.2245 16.2216 28.3327 15.9998 28.3327C15.7781 28.3327 15.4787 28.2245 15.1998 27.8527L15.1984 27.8508L13.2025 25.2029C12.9758 24.8949 12.6617 24.6722 12.3737 24.5283C12.0814 24.3821 11.7143 24.266 11.3332 24.266H9.33317C6.20154 24.266 3.6665 21.7365 3.6665 18.626V17.2927V9.31935C3.6665 6.19424 6.20285 3.66602 9.33317 3.66602H22.6665C25.7968 3.66602 28.3332 6.19424 28.3332 9.31935V18.626C28.3332 21.7365 25.7981 24.266 22.6665 24.266H20.6665C19.9359 24.266 19.2432 24.6159 18.8037 25.1943Z" fill="white" stroke="#333333" stroke-width="2"/>
<path d="M22.6668 11.666H9.3335C8.78683 11.666 8.3335 11.2127 8.3335 10.666C8.3335 10.1193 8.78683 9.66602 9.3335 9.66602H22.6668C23.2135 9.66602 23.6668 10.1193 23.6668 10.666C23.6668 11.2127 23.2135 11.666 22.6668 11.666Z" fill="#333333"/>
<path d="M17.3335 18.334H9.3335C8.78683 18.334 8.3335 17.8807 8.3335 17.334C8.3335 16.7873 8.78683 16.334 9.3335 16.334H17.3335C17.8802 16.334 18.3335 16.7873 18.3335 17.334C18.3335 17.8807 17.8802 18.334 17.3335 18.334Z" fill="#333333"/>
</svg>
