<svg width="28" height="28" viewBox="0 0 28 28" fill="none" xmlns="http://www.w3.org/2000/svg">
<path d="M25 14.1885H13.8125V3.00095C13.8125 2.86345 13.7 2.75095 13.5625 2.75095H12.75C11.1085 2.74826 9.48256 3.07019 7.96588 3.69821C6.44919 4.32622 5.07166 5.24794 3.91252 6.41033C2.77099 7.54833 1.86143 8.89728 1.23439 10.3822C0.58191 11.9223 0.247096 13.5783 0.250019 15.251C0.247331 16.8925 0.569257 18.5184 1.19728 20.0351C1.82529 21.5518 2.74701 22.9293 3.90939 24.0885C5.05627 25.2353 6.39377 26.1385 7.88127 26.7666C9.42139 27.4191 11.0774 27.7539 12.75 27.751C14.3916 27.7536 16.0175 27.4317 17.5342 26.8037C19.0508 26.1757 20.4284 25.254 21.5875 24.0916C22.7344 22.9447 23.6375 21.6072 24.2656 20.1197C24.9181 18.5796 25.2529 16.9236 25.25 15.251V14.4385C25.25 14.301 25.1375 14.1885 25 14.1885ZM20.0531 22.6197C19.0855 23.5798 17.9379 24.3396 16.6761 24.8554C15.4143 25.3713 14.0632 25.6331 12.7 25.626C9.94689 25.6135 7.35939 24.5353 5.41252 22.5885C3.45314 20.6291 2.37502 18.0228 2.37502 15.251C2.37502 12.4791 3.45314 9.87283 5.41252 7.91345C7.11877 6.2072 9.31564 5.16657 11.6875 4.92907V16.3135H23.0719C22.8313 18.6978 21.7813 20.9072 20.0531 22.6197ZM27.75 12.451L27.6688 11.5697C27.4031 8.69158 26.125 5.97595 24.0688 3.92595C22.0111 1.87219 19.301 0.601154 16.4063 0.332199L15.5219 0.250949C15.375 0.238449 15.25 0.350949 15.25 0.497824V12.501C15.25 12.6385 15.3625 12.751 15.5 12.751L27.5 12.7197C27.6469 12.7197 27.7625 12.5947 27.75 12.451ZM17.3688 10.6322V2.61345C19.3373 3.02547 21.1438 4.00038 22.5688 5.4197C23.9969 6.8447 24.975 8.6572 25.3813 10.6103L17.3688 10.6322Z" fill="#333333"/>
</svg>
