<svg width="32" height="32" viewBox="0 0 32 32" fill="none" xmlns="http://www.w3.org/2000/svg">
<path d="M27 16.1885H15.8125V5.00095C15.8125 4.86345 15.7 4.75095 15.5625 4.75095H14.75C13.1085 4.74826 11.4826 5.07019 9.96588 5.69821C8.44919 6.32622 7.07166 7.24794 5.91252 8.41033C4.77099 9.54833 3.86143 10.8973 3.23439 12.3822C2.58191 13.9223 2.2471 15.5783 2.25002 17.251C2.24733 18.8925 2.56926 20.5184 3.19728 22.0351C3.82529 23.5518 4.74701 24.9293 5.90939 26.0885C7.05627 27.2353 8.39377 28.1385 9.88127 28.7666C11.4214 29.4191 13.0774 29.7539 14.75 29.751C16.3916 29.7536 18.0175 29.4317 19.5342 28.8037C21.0508 28.1757 22.4284 27.254 23.5875 26.0916C24.7344 24.9447 25.6375 23.6072 26.2656 22.1197C26.9181 20.5796 27.2529 18.9236 27.25 17.251V16.4385C27.25 16.301 27.1375 16.1885 27 16.1885ZM22.0531 24.6197C21.0855 25.5798 19.9379 26.3396 18.6761 26.8554C17.4143 27.3713 16.0632 27.6331 14.7 27.626C11.9469 27.6135 9.35939 26.5353 7.41252 24.5885C5.45314 22.6291 4.37502 20.0228 4.37502 17.251C4.37502 14.4791 5.45314 11.8728 7.41252 9.91345C9.11877 8.2072 11.3156 7.16657 13.6875 6.92907V18.3135H25.0719C24.8313 20.6978 23.7813 22.9072 22.0531 24.6197ZM29.75 14.451L29.6688 13.5697C29.4031 10.6916 28.125 7.97595 26.0688 5.92595C24.0111 3.87219 21.301 2.60115 18.4063 2.3322L17.5219 2.25095C17.375 2.23845 17.25 2.35095 17.25 2.49782V14.501C17.25 14.6385 17.3625 14.751 17.5 14.751L29.5 14.7197C29.6469 14.7197 29.7625 14.5947 29.75 14.451ZM19.3688 12.6322V4.61345C21.3373 5.02547 23.1438 6.00038 24.5688 7.4197C25.9969 8.8447 26.975 10.6572 27.3813 12.6103L19.3688 12.6322Z" fill="#F79014"/>
</svg>
