<svg width="30" height="26" viewBox="0 0 30 26" fill="none" xmlns="http://www.w3.org/2000/svg">
<path d="M22.4132 25.3346H7.5865C2.27984 25.3346 0.666504 23.7346 0.666504 18.4813V7.5213C0.666504 2.26797 2.27984 0.667969 7.5865 0.667969H22.3998C27.7065 0.667969 29.3198 2.26797 29.3198 7.5213V18.468C29.3332 23.7346 27.7198 25.3346 22.4132 25.3346ZM7.5865 2.66797C3.39984 2.66797 2.6665 3.38797 2.6665 7.5213V18.468C2.6665 22.6013 3.39984 23.3213 7.5865 23.3213H22.3998C26.5865 23.3213 27.3198 22.6013 27.3198 18.468V7.5213C27.3198 3.38797 26.5865 2.66797 22.3998 2.66797H7.5865Z" fill="#333333"/>
</svg>
