<svg width="31" height="28" viewBox="0 0 31 28" fill="none" xmlns="http://www.w3.org/2000/svg">
<path d="M5.33301 10.4273L15.9997 4.33203L25.1303 9.54955C25.597 9.81613 25.9849 10.2014 26.2546 10.6662C26.5244 11.1311 26.6664 11.659 26.6663 12.1964V19.3248C26.6664 19.8622 26.5244 20.3901 26.2546 20.855C25.9849 21.3198 25.597 21.7051 25.1303 21.9716L17.5113 26.3252C17.0509 26.5881 16.5299 26.7265 15.9997 26.7265C15.4695 26.7265 14.9484 26.5881 14.4881 26.3252L6.86901 21.9716C6.40233 21.7051 6.01445 21.3198 5.7447 20.855C5.47494 20.3901 5.33291 19.8622 5.33301 19.3248V15.0551" stroke="#333333" stroke-linecap="round" stroke-linejoin="round"/>
<path d="M15.9997 16.5247V26.4295M14.5552 15.7476C14.9992 15.9866 15.4955 16.1117 15.9997 16.1117C16.504 16.1117 17.0003 15.9866 17.4443 15.7476L25.9045 11.1914L14.5552 15.7476Z" stroke="#333333" stroke-linecap="round" stroke-linejoin="round"/>
<path fill-rule="evenodd" clip-rule="evenodd" d="M5.33315 10.428L15.9998 16.5233L11.4284 18.0471L0.761719 11.9518L5.33315 10.428ZM15.9998 4.33278L26.6665 10.428L29.7141 7.38039L19.0474 1.28516L15.9998 4.33278Z" stroke="#333333" stroke-linecap="round" stroke-linejoin="round"/>
</svg>
