<svg width="30" height="26" viewBox="0 0 30 26" fill="none" xmlns="http://www.w3.org/2000/svg">
<path d="M29.1134 25.6726H0.906058C0.652938 25.6726 0.447754 25.4674 0.447754 25.2143V25.1614C0.447754 24.9083 0.652938 24.7031 0.906058 24.7031H29.1134C29.3665 24.7031 29.5717 24.9083 29.5717 25.1614V25.2143C29.5717 25.4675 29.3665 25.6726 29.1134 25.6726Z" fill="#333333"/>
<path d="M4.50217 18.5586H3.06934V24.7024H4.50217V18.5586Z" fill="#333333"/>
<path d="M8.99191 15.5977H7.55908V24.7015H8.99191V15.5977Z" fill="#333333"/>
<path d="M13.4812 15.8906H12.0483V24.7003H13.4812V15.8906Z" fill="#333333"/>
<path d="M17.9709 10.6719H16.5381V24.7011H17.9709V10.6719Z" fill="#333333"/>
<path d="M22.4602 8.76172H21.0273V24.7014H22.4602V8.76172Z" fill="#333333"/>
<path d="M26.9499 5.07812H25.5171V24.7022H26.9499V5.07812Z" fill="#333333"/>
<path d="M3.78582 17.0825C3.63798 17.0825 3.49161 17.0183 3.39126 16.8946C3.21462 16.6769 3.24796 16.3571 3.46569 16.1805L7.95516 12.5386C8.06754 12.4474 8.21366 12.4085 8.35644 12.4318L12.5204 13.1088L16.8293 6.52687C16.9064 6.40911 17.0289 6.32866 17.1676 6.30466L21.4909 5.55733L25.8644 0.93608C26.0572 0.732368 26.3785 0.7236 26.5821 0.916304C26.7858 1.10901 26.7946 1.43035 26.6019 1.634L22.1124 6.37781C22.0371 6.45736 21.9381 6.51042 21.8302 6.52911L17.558 7.26754L13.1894 13.9408C13.0794 14.1086 12.8805 14.1959 12.6832 14.1638L8.41814 13.4705L4.1053 16.969C4.01122 17.0453 3.89814 17.0825 3.78582 17.0825Z" fill="#333333"/>
</svg>
