<svg width="35" height="35" viewBox="0 0 35 35" fill="none" xmlns="http://www.w3.org/2000/svg">
<path d="M24.8047 11.2891H22.9727C22.5742 11.2891 22.1953 11.4805 21.9609 11.8086L15.8203 20.3242L13.0391 16.4648C12.8047 16.1406 12.4297 15.9453 12.0273 15.9453H10.1953C9.94141 15.9453 9.79298 16.2344 9.94141 16.4414L14.8086 23.1914C14.9236 23.3519 15.0752 23.4827 15.2508 23.5729C15.4264 23.6631 15.6209 23.7101 15.8184 23.7101C16.0158 23.7101 16.2104 23.6631 16.386 23.5729C16.5616 23.4827 16.7132 23.3519 16.8281 23.1914L25.0547 11.7852C25.207 11.5781 25.0586 11.2891 24.8047 11.2891V11.2891Z" fill="#333333"/>
<path d="M17.5 0C7.83594 0 0 7.83594 0 17.5C0 27.1641 7.83594 35 17.5 35C27.1641 35 35 27.1641 35 17.5C35 7.83594 27.1641 0 17.5 0ZM17.5 32.0312C9.47656 32.0312 2.96875 25.5234 2.96875 17.5C2.96875 9.47656 9.47656 2.96875 17.5 2.96875C25.5234 2.96875 32.0312 9.47656 32.0312 17.5C32.0312 25.5234 25.5234 32.0312 17.5 32.0312Z" fill="#333333"/>
</svg>
